<svg width="453" height="453" viewBox="0 0 453 453" fill="none" xmlns="http://www.w3.org/2000/svg">
<path d="M151.265 54.5858C161.86 49.0041 172.181 42.9274 182.544 36.9349C192.886 30.9634 203.544 25.308 213.433 18.6099C214.339 17.999 213.56 16.6721 212.58 17.1565C201.859 22.4434 191.675 28.8993 181.364 34.9233C171.033 40.9579 160.638 46.9188 150.538 53.3642C149.78 53.8486 150.454 55.0071 151.265 54.5858Z" fill="white"/>
<path d="M149.022 16.4298C157.384 24.1705 168.137 30.1419 177.552 36.5346C187.546 43.317 197.636 50.9629 208.589 56.1339C208.883 56.2708 209.263 55.8812 208.968 55.6495C199.837 48.5512 189.663 42.5903 180.111 36.0607C170.264 29.331 160.301 20.8636 149.432 15.9032C149.106 15.7452 148.716 16.1454 149.022 16.4298Z" fill="white"/>
<path d="M179.406 69.8147C179.943 58.3668 179.837 46.8769 179.922 35.4185C180.006 24.0549 180.891 12.3437 179.974 1.02224C179.88 -0.0835836 178.352 -0.0835836 178.258 1.02224C177.247 12.3437 178.036 24.0549 178.026 35.4185C178.015 46.8769 177.815 58.3668 178.258 69.8147C178.279 70.5519 179.363 70.5519 179.406 69.8147Z" fill="white"/>
<path d="M179.637 37.63C181.301 35.4078 182.555 32.8802 184.061 30.5633C185.567 28.2463 187.41 26.1189 188.81 23.7282C189.253 22.97 188.252 22.2538 187.62 22.812C185.503 24.6971 183.913 27.2142 182.397 29.5943C180.891 31.964 179.363 34.481 178.605 37.2087C178.426 37.8511 179.269 38.1144 179.637 37.63Z" fill="white"/>
<path d="M179.953 36.3872C178.7 31.511 176.099 25.8871 173.202 21.8114C172.897 21.3796 172.149 21.6218 172.307 22.1906C173.687 27.0772 176.109 32.5852 178.763 36.8927C179.142 37.514 180.132 37.1033 179.953 36.3872Z" fill="white"/>
<path d="M179.942 36.5454C177.699 39.5469 175.772 42.7695 173.697 45.8869C171.865 48.6462 169.653 51.2686 168.41 54.3543C168.252 54.744 168.79 54.9546 169.053 54.7335C171.601 52.5534 173.308 49.4992 175.108 46.7189C177.152 43.5805 179.174 40.421 180.732 37.0088C180.975 36.4611 180.29 36.0714 179.942 36.5454Z" fill="white"/>
<path d="M178.647 37.8723C181.765 42.8538 184.724 48.446 188.842 52.6798C189.421 53.2695 190.264 52.5218 189.937 51.8372C187.42 46.5714 183.229 41.8743 179.669 37.2825C179.216 36.6928 178.226 37.1983 178.647 37.8723Z" fill="white"/>
<path d="M163.303 38.2409C167.81 37.8513 172.497 37.8302 176.941 37.0719C177.752 36.935 177.468 35.7976 176.762 35.7344C172.307 35.3132 167.495 36.1767 163.145 37.0719C162.503 37.2194 162.639 38.3041 163.303 38.2409Z" fill="white"/>
<path d="M177.815 37.4194C184.334 37.293 191.148 36.8085 197.531 35.3868C198.173 35.2393 198.047 34.1862 197.373 34.2283C190.832 34.5653 184.176 35.5974 177.71 36.64C177.268 36.7137 177.373 37.4299 177.815 37.4194Z" fill="white"/>
<path d="M179.911 17.4305C181.617 15.7981 183.007 13.8392 184.545 12.0593C185.956 10.4269 187.599 8.81561 188.705 6.96205C189.116 6.26696 188.252 5.25593 187.536 5.79304C185.693 7.14109 184.229 9.1105 182.839 10.9009C181.428 12.7228 179.901 14.5553 178.869 16.6195C178.542 17.2936 179.353 17.9781 179.911 17.4305Z" fill="white"/>
<path d="M180.185 16.5246C176.604 12.5542 173.94 7.82547 170.369 3.87612C169.98 3.44432 169.148 3.89718 169.358 4.46588C171.212 9.52106 175.604 13.6916 179.648 17.0617C180.027 17.3882 180.522 16.9037 180.185 16.5246Z" fill="white"/>
<path d="M162.134 24.5077C163.145 21.0744 162.608 15.956 161.334 12.6385C161.081 11.9856 160.123 12.0593 160.08 12.807C159.986 14.8818 160.312 16.946 160.491 19.0102C160.649 20.8427 160.618 22.7384 161.134 24.5077C161.27 25.0026 161.987 24.9921 162.134 24.5077Z" fill="white"/>
<path d="M149.359 27.6144C153.172 26.6349 157.532 26.1084 161.133 24.5181C161.807 24.2232 161.428 23.2016 160.775 23.1911C156.794 23.149 152.54 25.0973 149.022 26.8034C148.548 27.0351 148.885 27.7408 149.359 27.6144Z" fill="white"/>
<path d="M146.157 44.8546C150.581 46.487 155.067 49.2147 159.933 49.0883C160.586 49.0672 160.628 48.2352 160.08 48.0141C157.479 46.9398 154.625 46.4554 151.971 45.4865C150.022 44.7703 148.264 43.8119 146.157 44.149C145.757 44.2121 145.852 44.7493 146.157 44.8546Z" fill="white"/>
<path d="M159.575 48.6671C158.764 51.1105 159.185 53.9119 159.259 56.4605C159.333 59.0829 159.333 61.7263 159.817 64.3171C159.975 65.1386 161.07 64.8332 161.155 64.1381C161.492 61.4104 161.291 58.609 161.186 55.8708C161.091 53.4906 161.302 50.8998 160.407 48.6671C160.249 48.2775 159.722 48.2353 159.575 48.6671Z" fill="white"/>
<path d="M167.126 68.3402C169.516 67.3081 171.517 65.7178 173.561 64.117C175.509 62.5794 177.836 60.9786 179.184 58.8723C179.669 58.1035 178.732 57.282 177.994 57.6822C175.899 58.8091 174.161 60.789 172.37 62.3477C170.391 64.0749 168.295 65.6441 166.578 67.6346C166.22 68.0348 166.652 68.5508 167.126 68.3402Z" fill="white"/>
<path d="M178.089 58.7984C181.47 62.2212 184.987 66.497 189.463 68.477C189.885 68.6665 190.559 68.2242 190.19 67.7503C187.189 63.8114 182.449 61.1785 178.553 58.1876C178.195 57.9243 177.784 58.493 178.089 58.7984Z" fill="white"/>
<path d="M196.973 48.8881C196.478 50.8049 196.657 52.7532 196.657 54.7121C196.657 56.9343 196.488 59.1881 196.699 61.3997C196.772 62.1474 197.889 62.4213 198.089 61.5893C198.995 57.8084 199.247 52.4268 197.678 48.7934C197.541 48.4774 197.057 48.5827 196.973 48.8881Z" fill="white"/>
<path d="M196.909 49.5518C198.963 49.2991 200.848 48.2143 202.754 47.4666C204.713 46.6872 206.767 46.0764 208.599 45.0233C209.073 44.7494 208.894 43.9069 208.304 43.949C206.05 44.107 203.944 44.9285 201.869 45.7815C200.026 46.5398 197.973 47.3086 196.582 48.7725C196.34 49.0358 196.488 49.6045 196.909 49.5518Z" fill="white"/>
<path d="M198.826 25.7715C199.732 23.6757 199.605 21.2851 199.647 19.0208C199.7 16.3879 199.89 13.7023 199.374 11.1115C199.226 10.3849 198.015 10.3638 197.889 11.1115C197.467 13.5443 197.646 16.0087 197.678 18.4731C197.71 20.8533 197.436 23.4651 198.31 25.6978C198.394 25.9084 198.721 26.0243 198.826 25.7715Z" fill="white"/>
<path d="M198.51 26.3191C202.744 27.9305 207.188 28.7625 211.675 29.3733C212.759 29.5208 213.265 27.8884 212.138 27.6883C207.641 26.8984 203.176 25.9295 198.636 25.3818C198.068 25.3186 198.057 26.1506 198.51 26.3191Z" fill="white"/>
<path d="M370.344 190.423C380.939 184.841 391.26 178.764 401.623 172.772C411.965 166.8 422.623 161.145 432.512 154.447C433.418 153.836 432.639 152.509 431.659 152.993C420.938 158.28 410.754 164.736 400.444 170.76C390.112 176.795 379.717 182.756 369.617 189.201C368.859 189.686 369.533 190.844 370.344 190.423Z" fill="white"/>
<path d="M368.091 152.267C376.453 160.007 387.205 165.979 396.621 172.372C406.615 179.154 416.705 186.8 427.657 191.971C427.952 192.108 428.331 191.718 428.037 191.486C418.906 184.388 408.732 178.427 399.18 171.898C389.333 165.168 379.37 156.7 368.501 151.74C368.175 151.582 367.785 151.982 368.091 152.267Z" fill="white"/>
<path d="M398.474 205.651C399.011 194.204 398.906 182.714 398.99 171.255C399.074 159.892 399.959 148.18 399.043 136.859C398.948 135.753 397.421 135.753 397.326 136.859C396.315 148.18 397.105 159.892 397.094 171.255C397.084 182.714 396.884 194.204 397.326 205.651C397.347 206.389 398.442 206.389 398.474 205.651Z" fill="white"/>
<path d="M398.706 173.467C400.37 171.245 401.623 168.717 403.129 166.4C404.635 164.083 406.478 161.956 407.879 159.565C408.321 158.807 407.321 158.091 406.689 158.649C404.572 160.534 402.982 163.051 401.465 165.431C399.959 167.801 398.432 170.318 397.674 173.046C397.505 173.688 398.348 173.951 398.706 173.467Z" fill="white"/>
<path d="M399.022 172.224C397.768 167.348 395.167 161.724 392.271 157.648C391.965 157.217 391.218 157.459 391.376 158.027C392.755 162.914 395.178 168.422 397.832 172.73C398.221 173.351 399.211 172.94 399.022 172.224Z" fill="white"/>
<path d="M399.011 172.382C396.768 175.384 394.841 178.606 392.766 181.724C390.934 184.483 388.722 187.105 387.479 190.191C387.321 190.581 387.858 190.791 388.122 190.57C390.67 188.39 392.376 185.336 394.177 182.556C396.22 179.417 398.243 176.258 399.801 172.845C400.054 172.298 399.369 171.908 399.011 172.382Z" fill="white"/>
<path d="M397.727 173.709C400.844 178.69 403.803 184.283 407.921 188.516C408.5 189.106 409.343 188.358 409.016 187.674C406.499 182.408 402.308 177.711 398.748 173.119C398.295 172.529 397.305 173.035 397.727 173.709Z" fill="white"/>
<path d="M382.382 174.078C386.89 173.688 391.576 173.667 396.021 172.909C396.831 172.772 396.547 171.634 395.841 171.571C391.387 171.15 386.574 172.013 382.224 172.909C381.582 173.056 381.708 174.141 382.382 174.078Z" fill="white"/>
<path d="M396.894 173.256C403.413 173.13 410.227 172.645 416.61 171.223C417.252 171.076 417.126 170.023 416.452 170.065C409.911 170.402 403.255 171.434 396.789 172.477C396.336 172.55 396.452 173.267 396.894 173.256Z" fill="white"/>
<path d="M398.99 153.267C400.697 151.635 402.087 149.676 403.624 147.896C405.036 146.264 406.679 144.652 407.784 142.799C408.195 142.104 407.331 141.093 406.615 141.63C404.772 142.978 403.308 144.947 401.918 146.738C400.507 148.56 398.98 150.392 397.948 152.456C397.621 153.13 398.422 153.815 398.99 153.267Z" fill="white"/>
<path d="M399.264 152.361C395.683 148.391 393.019 143.662 389.448 139.713C389.059 139.281 388.227 139.734 388.437 140.303C390.291 145.358 394.683 149.528 398.727 152.899C399.095 153.225 399.601 152.73 399.264 152.361Z" fill="white"/>
<path d="M381.202 160.344C382.213 156.911 381.676 151.793 380.402 148.475C380.149 147.822 379.191 147.896 379.149 148.644C379.054 150.718 379.38 152.783 379.559 154.847C379.717 156.679 379.686 158.575 380.202 160.344C380.349 160.839 381.066 160.829 381.202 160.344Z" fill="white"/>
<path d="M368.428 163.451C372.24 162.472 376.6 161.945 380.202 160.355C380.876 160.06 380.497 159.039 379.844 159.028C375.863 158.986 371.608 160.934 368.091 162.64C367.627 162.872 367.954 163.578 368.428 163.451Z" fill="white"/>
<path d="M365.236 180.692C369.66 182.324 374.146 185.052 379.012 184.925C379.665 184.904 379.707 184.072 379.159 183.851C376.558 182.777 373.704 182.292 371.05 181.323C369.102 180.607 367.343 179.649 365.236 179.986C364.836 180.049 364.931 180.586 365.236 180.692Z" fill="white"/>
<path d="M378.654 184.504C377.843 186.947 378.264 189.749 378.338 192.297C378.412 194.92 378.412 197.563 378.896 200.154C379.054 200.975 380.149 200.67 380.234 199.975C380.571 197.247 380.371 194.446 380.265 191.708C380.17 189.328 380.381 186.737 379.486 184.504C379.328 184.114 378.791 184.072 378.654 184.504Z" fill="white"/>
<path d="M386.205 204.177C388.595 203.145 390.596 201.555 392.64 199.954C394.588 198.416 396.915 196.816 398.263 194.709C398.748 193.94 397.811 193.119 397.073 193.519C394.978 194.646 393.24 196.626 391.45 198.185C389.47 199.912 387.374 201.481 385.657 203.471C385.299 203.872 385.731 204.377 386.205 204.177Z" fill="white"/>
<path d="M397.158 194.635C400.538 198.058 404.056 202.334 408.532 204.314C408.953 204.503 409.627 204.061 409.258 203.587C406.257 199.648 401.518 197.015 397.621 194.024C397.274 193.761 396.863 194.33 397.158 194.635Z" fill="white"/>
<path d="M416.052 184.725C415.557 186.642 415.736 188.59 415.736 190.549C415.736 192.771 415.567 195.025 415.778 197.237C415.852 197.984 416.968 198.258 417.168 197.426C418.074 193.645 418.326 188.264 416.757 184.63C416.62 184.314 416.125 184.42 416.052 184.725Z" fill="white"/>
<path d="M415.988 185.389C418.042 185.136 419.927 184.051 421.833 183.303C423.792 182.524 425.846 181.913 427.678 180.86C428.152 180.586 427.973 179.744 427.383 179.786C425.13 179.944 423.023 180.765 420.948 181.618C419.105 182.376 417.052 183.145 415.662 184.609C415.419 184.872 415.567 185.441 415.988 185.389Z" fill="white"/>
<path d="M417.905 161.608C418.811 159.512 418.684 157.122 418.727 154.857C418.779 152.225 418.969 149.539 418.453 146.948C418.305 146.222 417.094 146.2 416.968 146.948C416.546 149.381 416.725 151.845 416.757 154.31C416.789 156.69 416.515 159.302 417.389 161.534C417.463 161.735 417.8 161.861 417.905 161.608Z" fill="white"/>
<path d="M417.589 162.156C421.823 163.767 426.267 164.599 430.754 165.21C431.838 165.357 432.344 163.725 431.217 163.525C426.72 162.735 422.255 161.766 417.715 161.219C417.147 161.155 417.126 161.987 417.589 162.156Z" fill="white"/>
<path d="M36.3866 341.614C46.9814 336.033 57.3023 329.956 67.6654 323.963C78.0075 317.992 88.6655 312.337 98.5546 305.638C99.4604 305.028 98.681 303.701 97.7016 304.185C86.9804 309.472 76.7963 315.928 66.4859 321.952C56.1544 327.987 45.7597 333.947 35.6599 340.393C34.9016 340.877 35.5862 342.036 36.3866 341.614Z" fill="white"/>
<path d="M34.1433 303.458C42.5054 311.199 53.2582 317.17 62.6735 323.563C72.668 330.346 82.7572 337.991 93.7101 343.162C94.005 343.299 94.3841 342.91 94.0893 342.678C84.9583 335.58 74.7848 329.619 65.2327 323.089C55.3856 316.36 45.4227 307.892 34.5541 302.932C34.2276 302.774 33.8379 303.174 34.1433 303.458Z" fill="white"/>
<path d="M64.5272 356.843C65.0643 345.395 64.959 333.905 65.0432 322.447C65.1275 311.083 66.0121 299.372 65.0959 288.051C65.0011 286.945 63.474 286.945 63.3792 288.051C62.3682 299.372 63.1581 311.083 63.1475 322.447C63.137 333.905 62.9369 345.395 63.3792 356.843C63.4003 357.58 64.4851 357.58 64.5272 356.843Z" fill="white"/>
<path d="M64.7589 324.659C66.4229 322.436 67.6762 319.909 69.1822 317.592C70.6882 315.275 72.5312 313.147 73.9319 310.757C74.3743 309.999 73.3738 309.282 72.7419 309.841C70.625 311.726 69.0347 314.243 67.5182 316.623C66.0122 318.993 64.4851 321.51 63.7268 324.237C63.5478 324.88 64.3903 325.143 64.7589 324.659Z" fill="white"/>
<path d="M65.0748 323.416C63.8216 318.54 61.2203 312.916 58.3241 308.84C58.0187 308.408 57.2709 308.651 57.4289 309.219C58.8085 314.106 61.2308 319.614 63.8848 323.921C64.2639 324.543 65.2539 324.132 65.0748 323.416Z" fill="white"/>
<path d="M65.0641 323.574C62.8208 326.575 60.8936 329.798 58.8188 332.915C56.9863 335.675 54.7747 338.297 53.532 341.383C53.374 341.773 53.9111 341.983 54.1744 341.762C56.723 339.582 58.4292 336.528 60.2301 333.747C62.2732 330.609 64.2953 327.45 65.8539 324.037C66.0962 323.49 65.4116 323.1 65.0641 323.574Z" fill="white"/>
<path d="M63.7686 324.89C66.8859 329.872 69.8453 335.464 73.9632 339.698C74.5424 340.287 75.3849 339.54 75.0585 338.855C72.5414 333.589 68.3498 328.892 64.7901 324.3C64.3373 323.711 63.3473 324.227 63.7686 324.89Z" fill="white"/>
<path d="M48.424 325.27C52.9316 324.88 57.6181 324.859 62.0625 324.101C62.8734 323.964 62.589 322.826 61.8834 322.763C57.4285 322.342 52.6156 323.205 48.2661 324.101C47.6236 324.237 47.7605 325.333 48.424 325.27Z" fill="white"/>
<path d="M62.9369 324.448C69.456 324.322 76.2699 323.837 82.6521 322.415C83.2945 322.268 83.1681 321.215 82.4941 321.257C75.954 321.594 69.298 322.626 62.8316 323.669C62.3893 323.742 62.4946 324.458 62.9369 324.448Z" fill="white"/>
<path d="M65.0327 304.459C66.7388 302.827 68.129 300.868 69.6666 299.088C71.0779 297.456 72.7208 295.844 73.8266 293.991C74.2374 293.296 73.3738 292.284 72.6576 292.822C70.8146 294.17 69.3507 296.139 67.9605 297.929C66.5493 299.751 65.0222 301.584 63.9901 303.648C63.6636 304.322 64.4746 305.007 65.0327 304.459Z" fill="white"/>
<path d="M65.3064 303.553C61.7257 299.583 59.0612 294.854 55.491 290.905C55.1013 290.473 54.2693 290.926 54.4799 291.494C56.3335 296.55 60.7252 300.72 64.7693 304.09C65.1484 304.417 65.6434 303.922 65.3064 303.553Z" fill="white"/>
<path d="M47.2552 311.536C48.2662 308.103 47.7291 302.985 46.4547 299.667C46.202 299.014 45.2436 299.088 45.2015 299.836C45.1067 301.91 45.4332 303.975 45.6122 306.039C45.7702 307.871 45.7386 309.767 46.2546 311.536C46.3916 312.031 47.1077 312.021 47.2552 311.536Z" fill="white"/>
<path d="M34.4802 314.643C38.2927 313.663 42.6528 313.137 46.2546 311.547C46.9286 311.252 46.5494 310.23 45.8965 310.22C41.9155 310.178 37.6608 312.126 34.1432 313.832C33.6693 314.064 34.0063 314.769 34.4802 314.643Z" fill="white"/>
<path d="M31.2787 331.883C35.702 333.516 40.1884 336.243 45.054 336.117C45.707 336.096 45.7491 335.264 45.2015 335.043C42.6002 333.968 39.7461 333.484 37.0922 332.515C35.1438 331.799 33.385 330.841 31.2787 331.178C30.889 331.241 30.9733 331.778 31.2787 331.883Z" fill="white"/>
<path d="M44.6959 335.696C43.885 338.139 44.3063 340.94 44.38 343.489C44.4537 346.111 44.4537 348.755 44.9382 351.346C45.0961 352.167 46.1914 351.862 46.2757 351.167C46.6127 348.439 46.4126 345.648 46.3073 342.899C46.2125 340.519 46.4231 337.928 45.5279 335.696C45.37 335.306 44.8434 335.264 44.6959 335.696Z" fill="white"/>
<path d="M52.2473 355.369C54.638 354.337 56.639 352.746 58.6821 351.146C60.6305 349.608 62.9579 348.007 64.306 345.901C64.7904 345.132 63.8531 344.311 63.1159 344.711C61.0201 345.838 59.2824 347.818 57.492 349.376C55.5121 351.103 53.4163 352.673 51.6996 354.663C51.3416 355.063 51.7734 355.569 52.2473 355.369Z" fill="white"/>
<path d="M63.2103 345.827C66.591 349.25 70.1086 353.526 74.5845 355.506C75.0057 355.695 75.6798 355.253 75.3112 354.779C72.3096 350.84 67.5704 348.207 63.6737 345.216C63.3157 344.953 62.9049 345.522 63.2103 345.827Z" fill="white"/>
<path d="M82.0936 335.917C81.5986 337.833 81.7777 339.782 81.7777 341.741C81.7777 343.963 81.6092 346.217 81.8198 348.428C81.8935 349.176 83.0099 349.45 83.21 348.618C84.1157 344.837 84.3685 339.455 82.7992 335.822C82.6623 335.506 82.1779 335.611 82.0936 335.917Z" fill="white"/>
<path d="M82.0306 336.58C84.0842 336.328 85.9694 335.243 87.8756 334.495C89.8345 333.716 91.8881 333.105 93.7206 332.052C94.1946 331.778 94.0155 330.935 93.4258 330.978C91.172 331.136 89.0657 331.957 86.991 332.81C85.1479 333.568 83.0943 334.337 81.7041 335.801C81.4619 336.054 81.6093 336.633 82.0306 336.58Z" fill="white"/>
<path d="M83.947 312.8C84.8528 310.704 84.7264 308.314 84.7685 306.049C84.8212 303.416 85.0107 300.731 84.4947 298.14C84.3472 297.413 83.1361 297.392 83.0097 298.14C82.5885 300.573 82.7675 303.037 82.7991 305.502C82.8307 307.882 82.5569 310.494 83.431 312.726C83.5152 312.926 83.8417 313.053 83.947 312.8Z" fill="white"/>
<path d="M83.6312 313.348C87.8649 314.959 92.3092 315.791 96.7957 316.402C97.8805 316.549 98.386 314.917 97.2591 314.717C92.7621 313.927 88.2967 312.958 83.7576 312.41C83.1889 312.347 83.1783 313.168 83.6312 313.348Z" fill="white"/>
<path d="M151.265 436.23C161.86 430.649 172.181 424.572 182.544 418.579C192.886 412.608 203.544 406.953 213.433 400.254C214.339 399.644 213.56 398.317 212.58 398.801C201.859 404.088 191.675 410.544 181.364 416.568C171.033 422.602 160.638 428.563 150.538 435.009C149.78 435.493 150.454 436.662 151.265 436.23Z" fill="white"/>
<path d="M149.022 398.074C157.384 405.815 168.137 411.787 177.552 418.179C187.546 424.962 197.636 432.608 208.589 437.779C208.883 437.915 209.263 437.526 208.968 437.294C199.837 430.196 189.663 424.235 180.111 417.705C170.264 410.976 160.301 402.508 149.432 397.548C149.106 397.39 148.716 397.801 149.022 398.074Z" fill="white"/>
<path d="M179.406 451.459C179.943 440.011 179.837 428.521 179.922 417.063C180.006 405.699 180.891 393.988 179.974 382.667C179.88 381.561 178.352 381.561 178.258 382.667C177.247 393.988 178.036 405.699 178.026 417.063C178.015 428.521 177.815 440.011 178.258 451.459C178.279 452.207 179.363 452.207 179.406 451.459Z" fill="white"/>
<path d="M179.637 419.275C181.301 417.052 182.555 414.525 184.061 412.208C185.567 409.891 187.41 407.763 188.81 405.373C189.253 404.614 188.252 403.898 187.62 404.457C185.503 406.342 183.913 408.859 182.397 411.239C180.891 413.608 179.363 416.126 178.605 418.853C178.426 419.496 179.269 419.759 179.637 419.275Z" fill="white"/>
<path d="M179.953 418.032C178.7 413.156 176.099 407.532 173.202 403.456C172.897 403.024 172.149 403.266 172.307 403.835C173.687 408.722 176.109 414.23 178.763 418.537C179.142 419.159 180.132 418.758 179.953 418.032Z" fill="white"/>
<path d="M179.942 418.19C177.699 421.191 175.772 424.414 173.697 427.531C171.865 430.29 169.653 432.913 168.41 435.999C168.252 436.388 168.79 436.599 169.053 436.378C171.601 434.198 173.308 431.144 175.108 428.363C177.152 425.225 179.174 422.065 180.732 418.653C180.975 418.116 180.29 417.726 179.942 418.19Z" fill="white"/>
<path d="M178.647 419.517C181.765 424.498 184.724 430.09 188.842 434.324C189.421 434.914 190.264 434.166 189.937 433.482C187.42 428.216 183.229 423.519 179.669 418.927C179.216 418.337 178.226 418.853 178.647 419.517Z" fill="white"/>
<path d="M163.303 419.896C167.81 419.506 172.497 419.485 176.941 418.727C177.752 418.59 177.468 417.453 176.762 417.389C172.307 416.968 167.495 417.832 163.145 418.727C162.503 418.864 162.639 419.949 163.303 419.896Z" fill="white"/>
<path d="M177.815 419.074C184.334 418.948 191.148 418.464 197.531 417.042C198.173 416.894 198.047 415.841 197.373 415.883C190.832 416.22 184.176 417.252 177.71 418.295C177.268 418.358 177.373 419.085 177.815 419.074Z" fill="white"/>
<path d="M179.911 399.085C181.617 397.453 183.007 395.494 184.545 393.714C185.956 392.082 187.599 390.47 188.705 388.617C189.116 387.922 188.252 386.911 187.536 387.448C185.693 388.796 184.229 390.765 182.839 392.556C181.428 394.378 179.901 396.21 178.869 398.274C178.542 398.938 179.353 399.622 179.911 399.085Z" fill="white"/>
<path d="M180.185 398.18C176.604 394.209 173.94 389.48 170.369 385.531C169.98 385.099 169.148 385.552 169.358 386.121C171.212 391.176 175.604 395.347 179.648 398.717C180.027 399.033 180.522 398.548 180.185 398.18Z" fill="white"/>
<path d="M162.134 406.152C163.145 402.719 162.608 397.6 161.334 394.283C161.081 393.63 160.123 393.704 160.08 394.451C159.986 396.526 160.312 398.59 160.491 400.654C160.649 402.487 160.618 404.383 161.134 406.152C161.27 406.647 161.987 406.647 162.134 406.152Z" fill="white"/>
<path d="M149.359 409.269C153.172 408.29 157.532 407.763 161.133 406.173C161.807 405.878 161.428 404.857 160.775 404.846C156.794 404.804 152.54 406.752 149.022 408.458C148.548 408.68 148.885 409.385 149.359 409.269Z" fill="white"/>
<path d="M146.157 426.51C150.581 428.142 155.067 430.87 159.933 430.743C160.586 430.722 160.628 429.89 160.08 429.669C157.479 428.595 154.625 428.11 151.971 427.141C150.022 426.425 148.264 425.467 146.157 425.804C145.757 425.857 145.852 426.394 146.157 426.51Z" fill="white"/>
<path d="M159.575 430.312C158.764 432.755 159.185 435.556 159.259 438.105C159.333 440.727 159.333 443.371 159.817 445.961C159.975 446.783 161.07 446.478 161.155 445.782C161.492 443.055 161.291 440.253 161.186 437.515C161.091 435.135 161.302 432.544 160.407 430.312C160.249 429.922 159.722 429.89 159.575 430.312Z" fill="white"/>
<path d="M167.126 449.995C169.516 448.963 171.517 447.373 173.561 445.772C175.509 444.234 177.836 442.633 179.184 440.527C179.669 439.758 178.732 438.937 177.994 439.337C175.899 440.464 174.161 442.444 172.37 444.003C170.391 445.73 168.295 447.299 166.578 449.289C166.22 449.679 166.652 450.195 167.126 449.995Z" fill="white"/>
<path d="M178.089 440.453C181.47 443.876 184.987 448.152 189.463 450.143C189.885 450.332 190.559 449.89 190.19 449.416C187.189 445.477 182.449 442.844 178.553 439.853C178.195 439.569 177.784 440.148 178.089 440.453Z" fill="white"/>
<path d="M196.973 430.533C196.478 432.45 196.657 434.398 196.657 436.357C196.657 438.579 196.488 440.833 196.699 443.044C196.772 443.792 197.889 444.066 198.089 443.234C198.995 439.453 199.247 434.071 197.678 430.438C197.541 430.133 197.057 430.238 196.973 430.533Z" fill="white"/>
<path d="M196.909 431.207C198.963 430.954 200.848 429.869 202.754 429.121C204.713 428.342 206.767 427.731 208.599 426.678C209.073 426.404 208.894 425.562 208.304 425.604C206.05 425.762 203.944 426.583 201.869 427.436C200.026 428.195 197.973 428.963 196.582 430.427C196.34 430.68 196.488 431.259 196.909 431.207Z" fill="white"/>
<path d="M198.826 407.426C199.732 405.331 199.605 402.94 199.647 400.676C199.7 398.043 199.89 395.357 199.374 392.766C199.226 392.04 198.015 392.019 197.889 392.766C197.467 395.199 197.646 397.664 197.678 400.128C197.71 402.508 197.436 405.12 198.31 407.353C198.394 407.553 198.721 407.669 198.826 407.426Z" fill="white"/>
<path d="M198.51 407.974C202.744 409.585 207.188 410.417 211.675 411.028C212.759 411.176 213.265 409.543 212.138 409.343C207.641 408.553 203.176 407.584 198.636 407.037C198.068 406.973 198.057 407.795 198.51 407.974Z" fill="white"/>
<path d="M231.737 56.1024C235.897 53.7222 240.036 51.3105 244.175 48.9093C244.691 48.6144 244.228 47.8035 243.701 48.1089C239.562 50.5206 235.423 52.9218 231.295 55.3546C230.832 55.639 231.263 56.3762 231.737 56.1024Z" fill="white"/>
<path d="M230.864 47.8352C235.013 50.7104 239.141 53.754 243.491 56.3342C243.828 56.5343 244.091 56.0394 243.796 55.8182C239.721 52.8167 235.424 50.0574 231.232 47.2244C230.843 46.9611 230.495 47.5719 230.864 47.8352Z" fill="white"/>
<path d="M237.572 60.1676C237.635 54.8386 237.656 49.5096 237.688 44.1807C237.688 43.6751 236.908 43.6751 236.908 44.1807C236.898 49.5096 236.877 54.8386 236.898 60.1676C236.898 60.61 237.572 60.61 237.572 60.1676Z" fill="white"/>
<path d="M237.551 52.3427C238.288 51.2896 238.878 50.1311 239.573 49.0463C240.278 47.9721 241.11 46.9821 241.784 45.8869C241.964 45.6025 241.563 45.3076 241.321 45.5288C239.531 47.2033 237.867 49.8362 237.14 52.1742C237.066 52.427 237.414 52.5428 237.551 52.3427Z" fill="white"/>
<path d="M237.688 51.8056C237.045 49.5202 235.887 47.0137 234.57 45.0548C234.454 44.8863 234.159 44.9811 234.223 45.2022C234.939 47.4771 236.024 49.9415 237.224 52.0057C237.361 52.2479 237.761 52.0794 237.688 51.8056Z" fill="white"/>
<path d="M237.751 51.8794C236.792 53.2064 235.95 54.6071 235.044 55.9762C234.149 57.3242 233.075 58.6196 232.411 60.0941C232.348 60.2415 232.516 60.3995 232.643 60.2731C233.78 59.2199 234.581 57.8403 235.423 56.5449C236.371 55.0915 237.308 53.6277 238.056 52.0584C238.161 51.8583 237.888 51.7004 237.751 51.8794Z" fill="white"/>
<path d="M237.161 52.4587C238.625 54.7651 240.026 57.2927 241.89 59.3042C242.101 59.5359 242.448 59.241 242.311 58.9777C241.079 56.5555 239.194 54.386 237.562 52.227C237.393 51.9953 237.003 52.1954 237.161 52.4587Z" fill="white"/>
<path d="M230.01 52.6061C232.106 52.406 234.244 52.3639 236.319 52.0584C236.635 52.0163 236.529 51.5635 236.245 51.5424C234.17 51.395 231.98 51.753 229.947 52.1532C229.705 52.2059 229.758 52.6377 230.01 52.6061Z" fill="white"/>
<path d="M236.74 52.2374C239.773 52.1426 242.891 51.9004 245.871 51.279C246.124 51.2263 246.071 50.8156 245.808 50.8261C242.775 51.0262 239.71 51.4791 236.698 51.9319C236.53 51.9635 236.572 52.2479 236.74 52.2374Z" fill="white"/>
<path d="M96.7221 53.0167C100.882 50.6366 105.021 48.2248 109.16 45.8236C109.676 45.5287 109.213 44.7178 108.686 45.0232C104.547 47.4349 100.408 49.8361 96.2798 52.2689C95.8059 52.5533 96.2377 53.2905 96.7221 53.0167Z" fill="white"/>
<path d="M95.8377 44.7493C99.9872 47.6244 104.116 50.668 108.465 53.2483C108.802 53.4484 109.065 52.9534 108.771 52.7322C104.695 49.7307 100.398 46.9714 96.2063 44.1384C95.8167 43.8752 95.4691 44.4965 95.8377 44.7493Z" fill="white"/>
<path d="M102.557 57.0924C102.62 51.7634 102.641 46.4344 102.673 41.1055C102.673 40.5999 101.894 40.5999 101.894 41.1055C101.883 46.4344 101.862 51.7634 101.883 57.0924C101.883 57.5242 102.547 57.5242 102.557 57.0924Z" fill="white"/>
<path d="M102.525 49.2675C103.262 48.2144 103.852 47.0559 104.547 45.9712C105.253 44.8969 106.085 43.907 106.759 42.8117C106.938 42.5273 106.538 42.2324 106.295 42.4536C104.505 44.1281 102.841 46.761 102.114 49.099C102.051 49.3413 102.388 49.4571 102.525 49.2675Z" fill="white"/>
<path d="M102.662 48.7199C102.02 46.4345 100.861 43.928 99.5448 41.9691C99.4289 41.8006 99.1341 41.8954 99.1973 42.1165C99.9134 44.3914 100.998 46.8558 102.199 48.92C102.346 49.1622 102.736 49.0042 102.662 48.7199Z" fill="white"/>
<path d="M102.736 48.8041C101.778 50.1311 100.935 51.5318 100.029 52.9009C99.1342 54.249 98.06 55.5444 97.3965 57.0188C97.3333 57.1662 97.5018 57.3242 97.6282 57.1978C98.7656 56.1447 99.566 54.765 100.409 53.4696C101.356 52.0163 102.294 50.5524 103.041 48.9832C103.136 48.7725 102.873 48.6146 102.736 48.8041Z" fill="white"/>
<path d="M102.146 49.3729C103.61 51.6793 105.01 54.2069 106.874 56.2184C107.085 56.4501 107.433 56.1552 107.296 55.8919C106.064 53.4697 104.178 51.3002 102.546 49.1412C102.367 48.9095 101.977 49.1201 102.146 49.3729Z" fill="white"/>
<path d="M94.9951 49.5309C97.0909 49.3308 99.2288 49.2887 101.304 48.9833C101.619 48.9411 101.514 48.4883 101.23 48.4672C99.1551 48.3198 96.9645 48.6778 94.9319 49.078C94.6792 49.1202 94.7318 49.552 94.9951 49.5309Z" fill="white"/>
<path d="M101.725 49.1622C104.758 49.0674 107.875 48.8252 110.855 48.2038C111.108 48.1511 111.056 47.7404 110.792 47.7509C107.759 47.951 104.694 48.4039 101.682 48.8567C101.503 48.8778 101.546 49.1622 101.725 49.1622Z" fill="white"/>
<path d="M411.575 246.693C415.735 244.313 419.874 241.901 424.013 239.5C424.529 239.205 424.066 238.394 423.539 238.699C419.4 241.111 415.261 243.512 411.133 245.945C410.659 246.23 411.091 246.967 411.575 246.693Z" fill="white"/>
<path d="M410.701 238.426C414.851 241.301 418.979 244.344 423.329 246.925C423.666 247.125 423.929 246.63 423.634 246.408C419.558 243.407 415.261 240.648 411.07 237.815C410.68 237.551 410.322 238.173 410.701 238.426Z" fill="white"/>
<path d="M417.41 250.769C417.473 245.44 417.494 240.111 417.525 234.782C417.525 234.276 416.746 234.276 416.746 234.782C416.736 240.111 416.715 245.44 416.736 250.769C416.736 251.2 417.41 251.2 417.41 250.769Z" fill="white"/>
<path d="M417.379 242.944C418.116 241.89 418.705 240.732 419.401 239.647C420.106 238.573 420.938 237.583 421.612 236.488C421.791 236.203 421.391 235.908 421.149 236.13C419.358 237.804 417.694 240.437 416.968 242.775C416.905 243.017 417.242 243.133 417.379 242.944Z" fill="white"/>
<path d="M417.515 242.396C416.873 240.111 415.714 237.604 414.398 235.645C414.282 235.477 413.987 235.572 414.05 235.793C414.766 238.068 415.851 240.532 417.052 242.596C417.199 242.838 417.599 242.68 417.515 242.396Z" fill="white"/>
<path d="M417.589 242.48C416.63 243.807 415.788 245.208 414.882 246.577C413.987 247.925 412.913 249.22 412.249 250.695C412.186 250.842 412.354 251 412.481 250.874C413.618 249.821 414.419 248.441 415.261 247.146C416.209 245.692 417.146 244.228 417.894 242.659C417.999 242.449 417.726 242.291 417.589 242.48Z" fill="white"/>
<path d="M416.999 243.049C418.463 245.356 419.864 247.883 421.728 249.895C421.939 250.126 422.286 249.831 422.149 249.568C420.917 247.146 419.032 244.976 417.4 242.817C417.22 242.586 416.831 242.796 416.999 243.049Z" fill="white"/>
<path d="M409.848 243.207C411.944 243.007 414.082 242.965 416.157 242.659C416.473 242.617 416.367 242.164 416.083 242.143C414.008 241.996 411.818 242.354 409.785 242.754C409.532 242.796 409.585 243.228 409.848 243.207Z" fill="white"/>
<path d="M416.578 242.838C419.611 242.744 422.729 242.501 425.709 241.88C425.962 241.827 425.909 241.417 425.646 241.427C422.613 241.627 419.548 242.08 416.536 242.533C416.367 242.554 416.41 242.838 416.578 242.838Z" fill="white"/>
<path d="M429.553 103.558C433.713 101.178 437.852 98.7661 441.991 96.3649C442.507 96.07 442.043 95.259 441.517 95.5645C437.378 97.9762 433.239 100.377 429.11 102.81C428.636 103.095 429.068 103.832 429.553 103.558Z" fill="white"/>
<path d="M428.668 95.2906C432.817 98.1657 436.946 101.209 441.295 103.79C441.632 103.99 441.896 103.495 441.601 103.274C437.525 100.272 433.228 97.5127 429.036 94.6797C428.647 94.4164 428.299 95.0273 428.668 95.2906Z" fill="white"/>
<path d="M435.387 107.623C435.45 102.294 435.471 96.9652 435.503 91.6362C435.503 91.1307 434.724 91.1307 434.724 91.6362C434.713 96.9652 434.692 102.294 434.713 107.623C434.703 108.066 435.377 108.066 435.387 107.623Z" fill="white"/>
<path d="M435.356 99.7981C436.093 98.7449 436.683 97.5864 437.378 96.5017C438.083 95.4275 438.915 94.4375 439.589 93.3422C439.768 93.0578 439.368 92.7629 439.126 92.9841C437.335 94.6586 435.672 97.2915 434.945 99.6296C434.882 99.8823 435.219 99.9982 435.356 99.7981Z" fill="white"/>
<path d="M435.492 99.2609C434.85 96.9755 433.691 94.469 432.375 92.5101C432.259 92.3416 431.964 92.4364 432.027 92.6576C432.743 94.9324 433.828 97.3968 435.029 99.461C435.166 99.7032 435.566 99.5347 435.492 99.2609Z" fill="white"/>
<path d="M435.566 99.3347C434.608 100.662 433.765 102.062 432.86 103.432C431.964 104.78 430.89 106.075 430.227 107.549C430.163 107.697 430.332 107.855 430.458 107.728C431.596 106.675 432.396 105.296 433.239 104C434.187 102.547 435.124 101.083 435.872 99.5138C435.966 99.3137 435.693 99.1557 435.566 99.3347Z" fill="white"/>
<path d="M434.976 99.914C436.44 102.22 437.841 104.748 439.705 106.76C439.916 106.991 440.263 106.696 440.126 106.433C438.894 104.011 437.009 101.841 435.377 99.6823C435.198 99.4506 434.808 99.6507 434.976 99.914Z" fill="white"/>
<path d="M427.815 100.061C429.911 99.8613 432.049 99.8192 434.123 99.5138C434.439 99.4717 434.334 99.0188 434.05 98.9977C431.975 98.8503 429.784 99.2084 427.752 99.6086C427.51 99.6612 427.562 100.093 427.815 100.061Z" fill="white"/>
<path d="M434.544 99.6927C437.578 99.5979 440.695 99.3557 443.675 98.7343C443.928 98.6816 443.875 98.2709 443.612 98.2814C440.579 98.4815 437.514 98.9344 434.502 99.3873C434.334 99.4188 434.376 99.7032 434.544 99.6927Z" fill="white"/>
<path d="M235.36 398.38C239.52 396 243.659 393.588 247.798 391.187C248.314 390.892 247.851 390.081 247.324 390.386C243.185 392.798 239.047 395.199 234.918 397.632C234.455 397.916 234.887 398.654 235.36 398.38Z" fill="white"/>
<path d="M234.487 390.112C238.636 392.987 242.764 396.031 247.114 398.611C247.451 398.811 247.714 398.316 247.419 398.095C243.344 395.094 239.047 392.335 234.855 389.502C234.466 389.238 234.118 389.849 234.487 390.112Z" fill="white"/>
<path d="M241.206 402.445C241.269 397.116 241.29 391.787 241.321 386.458C241.321 385.952 240.542 385.952 240.542 386.458C240.531 391.787 240.51 397.116 240.531 402.445C240.521 402.887 241.195 402.887 241.206 402.445Z" fill="white"/>
<path d="M241.174 394.62C241.911 393.567 242.501 392.408 243.196 391.323C243.902 390.249 244.734 389.259 245.408 388.164C245.587 387.88 245.186 387.585 244.944 387.806C243.154 389.48 241.49 392.113 240.763 394.451C240.7 394.704 241.037 394.809 241.174 394.62Z" fill="white"/>
<path d="M241.311 394.083C240.668 391.798 239.51 389.291 238.193 387.332C238.077 387.164 237.782 387.258 237.846 387.48C238.562 389.754 239.647 392.219 240.847 394.283C240.984 394.525 241.384 394.357 241.311 394.083Z" fill="white"/>
<path d="M241.374 394.156C240.415 395.483 239.573 396.884 238.667 398.253C237.772 399.601 236.698 400.897 236.034 402.371C235.971 402.519 236.14 402.676 236.266 402.55C237.403 401.497 238.204 400.117 239.046 398.822C239.994 397.369 240.931 395.905 241.679 394.335C241.784 394.125 241.511 393.977 241.374 394.156Z" fill="white"/>
<path d="M240.784 394.736C242.248 397.042 243.649 399.57 245.513 401.581C245.724 401.813 246.071 401.518 245.934 401.255C244.702 398.833 242.817 396.663 241.185 394.504C241.016 394.272 240.627 394.472 240.784 394.736Z" fill="white"/>
<path d="M233.633 394.883C235.729 394.683 237.867 394.641 239.942 394.336C240.258 394.293 240.152 393.841 239.868 393.82C237.793 393.672 235.603 394.03 233.57 394.43C233.328 394.483 233.381 394.904 233.633 394.883Z" fill="white"/>
<path d="M240.363 394.515C243.396 394.42 246.514 394.178 249.494 393.556C249.747 393.504 249.694 393.093 249.431 393.103C246.398 393.304 243.333 393.756 240.321 394.209C240.153 394.241 240.195 394.525 240.363 394.515Z" fill="white"/>
<path d="M66.7389 428.332C70.8989 425.951 75.0378 423.54 79.1767 421.139C79.6928 420.844 79.2294 420.033 78.7028 420.338C74.5639 422.75 70.4249 425.151 66.2965 427.584C65.8331 427.868 66.2649 428.605 66.7389 428.332Z" fill="white"/>
<path d="M65.8646 420.064C70.014 422.939 74.1424 425.983 78.492 428.563C78.829 428.763 79.0923 428.268 78.7974 428.047C74.7217 425.046 70.4248 422.286 66.2332 419.453C65.8435 419.19 65.496 419.801 65.8646 420.064Z" fill="white"/>
<path d="M72.5737 432.397C72.6369 427.068 72.6579 421.739 72.6895 416.41C72.6895 415.904 71.9102 415.904 71.9102 416.41C71.8996 421.739 71.8786 427.068 71.8996 432.397C71.8996 432.839 72.5737 432.839 72.5737 432.397Z" fill="white"/>
<path d="M72.5522 424.572C73.2894 423.519 73.8792 422.36 74.5743 421.276C75.2799 420.201 76.1119 419.211 76.7859 418.116C76.965 417.832 76.5648 417.537 76.3225 417.758C74.5322 419.433 72.8682 422.065 72.1415 424.403C72.0678 424.656 72.4153 424.772 72.5522 424.572Z" fill="white"/>
<path d="M72.6895 424.035C72.0471 421.749 70.8886 419.243 69.5721 417.284C69.4563 417.116 69.1614 417.21 69.2246 417.431C69.9407 419.706 71.0255 422.171 72.2261 424.235C72.363 424.477 72.7632 424.309 72.6895 424.035Z" fill="white"/>
<path d="M72.7527 424.109C71.7943 425.436 70.9518 426.836 70.046 428.205C69.1508 429.554 68.0766 430.849 67.4131 432.323C67.3499 432.471 67.5185 432.629 67.6448 432.502C68.7822 431.449 69.5826 430.07 70.4252 428.774C71.373 427.321 72.3103 425.857 73.0581 424.288C73.1634 424.088 72.8896 423.93 72.7527 424.109Z" fill="white"/>
<path d="M72.1629 424.688C73.6268 426.994 75.0275 429.522 76.8916 431.533C77.1022 431.765 77.4498 431.47 77.3129 431.207C76.0807 428.784 74.1955 426.615 72.5631 424.456C72.3946 424.224 72.0049 424.424 72.1629 424.688Z" fill="white"/>
<path d="M65.0117 424.835C67.1075 424.635 69.2454 424.593 71.3202 424.288C71.6361 424.246 71.5308 423.793 71.2464 423.772C69.1717 423.624 66.9811 423.982 64.9485 424.383C64.7063 424.435 64.759 424.867 65.0117 424.835Z" fill="white"/>
<path d="M71.7412 424.467C74.7743 424.372 77.8916 424.13 80.8721 423.508C81.1249 423.456 81.0722 423.045 80.8089 423.055C77.7758 423.255 74.7111 423.708 71.6991 424.161C71.5306 424.193 71.5727 424.477 71.7412 424.467Z" fill="white"/>
<path d="M17.3139 265.534C21.4739 263.154 25.6128 260.742 29.7517 258.341C30.2678 258.046 29.8044 257.235 29.2778 257.541C25.1389 259.952 21 262.353 16.8716 264.786C16.3977 265.071 16.8295 265.808 17.3139 265.534Z" fill="white"/>
<path d="M16.429 257.277C20.5785 260.152 24.7069 263.196 29.0564 265.776C29.3935 265.976 29.6567 265.481 29.3619 265.26C25.2861 262.259 20.9892 259.499 16.7977 256.666C16.408 256.403 16.0604 257.014 16.429 257.277Z" fill="white"/>
<path d="M23.1484 269.61C23.2116 264.281 23.2326 258.952 23.2642 253.623C23.2642 253.117 22.4849 253.117 22.4849 253.623C22.4743 258.952 22.4533 264.281 22.4743 269.61C22.4743 270.042 23.1378 270.042 23.1484 269.61Z" fill="white"/>
<path d="M23.1168 261.785C23.854 260.731 24.4438 259.573 25.1389 258.488C25.8445 257.414 26.6765 256.424 27.3505 255.329C27.5295 255.044 27.1293 254.75 26.8871 254.971C25.0967 256.645 23.4327 259.278 22.7061 261.616C22.6429 261.869 22.9799 261.974 23.1168 261.785Z" fill="white"/>
<path d="M23.2539 261.237C22.6115 258.952 21.453 256.445 20.1366 254.486C20.0207 254.318 19.7259 254.412 19.789 254.634C20.5052 256.908 21.59 259.373 22.7906 261.437C22.938 261.679 23.3277 261.521 23.2539 261.237Z" fill="white"/>
<path d="M23.3274 261.321C22.369 262.648 21.5265 264.049 20.6207 265.418C19.7256 266.766 18.6513 268.061 17.9878 269.536C17.9247 269.683 18.0932 269.841 18.2195 269.715C19.357 268.662 20.1574 267.282 20.9999 265.987C21.9477 264.533 22.885 263.069 23.6328 261.5C23.7276 261.29 23.4537 261.132 23.3274 261.321Z" fill="white"/>
<path d="M22.7376 261.89C24.2015 264.196 25.6022 266.724 27.4663 268.735C27.6769 268.967 28.0245 268.672 27.8876 268.409C26.6554 265.987 24.7702 263.817 23.1378 261.658C22.9588 261.437 22.5691 261.637 22.7376 261.89Z" fill="white"/>
<path d="M15.5762 262.048C17.672 261.848 19.8099 261.806 21.8846 261.5C22.2006 261.458 22.0952 261.005 21.8109 260.984C19.7362 260.837 17.5456 261.195 15.513 261.595C15.2708 261.648 15.3234 262.069 15.5762 262.048Z" fill="white"/>
<path d="M22.3164 261.679C25.3495 261.585 28.4668 261.343 31.4473 260.721C31.7 260.668 31.6474 260.258 31.3841 260.268C28.351 260.468 25.2863 260.921 22.2742 261.374C22.0952 261.406 22.1373 261.69 22.3164 261.679Z" fill="white"/>
<path d="M71.8152 63.6536C74.2902 63.6536 74.3007 59.7991 71.8152 59.7991C69.3403 59.7991 69.3298 63.6536 71.8152 63.6536Z" fill="white"/>
<path d="M110.771 20.0738C110.655 19.7578 110.55 19.4314 110.434 19.1154C110.297 18.7257 110.108 18.4203 109.781 18.1676C109.476 17.9253 109.076 17.7568 108.675 17.7779C108.349 17.7884 108.043 17.8727 107.749 18.0307C107.327 18.2518 107.064 18.6942 106.906 19.126C106.79 19.4419 106.685 19.7684 106.569 20.0843C106.327 20.7794 106.59 21.7062 107.127 22.2012C107.548 22.5908 108.075 22.8331 108.665 22.8331C109.223 22.8331 109.802 22.5908 110.202 22.2012C110.729 21.6641 111.013 20.7899 110.771 20.0738Z" fill="white"/>
<path d="M279.288 59.1251C282.721 59.1251 282.721 53.7961 279.288 53.7961C275.855 53.7961 275.855 59.1251 279.288 59.1251Z" fill="white"/>
<path d="M264.544 23.5282C266.892 23.5282 266.903 19.8738 264.544 19.8738C262.195 19.8843 262.185 23.5282 264.544 23.5282Z" fill="white"/>
<path d="M305.617 30.2578C307.144 30.2578 307.144 27.8882 305.617 27.8882C304.09 27.8987 304.09 30.2578 305.617 30.2578Z" fill="white"/>
<path d="M18.1038 225.788C20.5155 225.788 20.526 222.039 18.1038 222.039C15.692 222.039 15.6815 225.788 18.1038 225.788Z" fill="white"/>
<path d="M3.91776 301.91C3.65447 301.805 3.38065 301.699 3.11736 301.594C2.89619 301.563 2.68556 301.531 2.4644 301.51C2.12739 301.499 1.81144 301.563 1.51655 301.721C1.30592 301.784 1.12688 301.879 0.97944 302.036C0.71615 302.205 0.505519 302.437 0.347545 302.721C0.337013 302.732 0.326477 302.742 0.326477 302.753C0.115845 303.121 0 303.521 0 303.953C0 304.385 0.105314 304.785 0.326477 305.154C0.337009 305.164 0.347545 305.175 0.347545 305.185C0.473924 305.354 0.600304 305.512 0.726684 305.68C0.947847 305.923 1.21114 306.091 1.51655 306.186C1.97995 306.386 2.62237 306.502 3.10682 306.312C3.37011 306.207 3.64394 306.102 3.90723 305.996C4.07573 305.923 4.24424 305.849 4.41275 305.786C4.65497 305.649 4.85507 305.47 5.01305 305.238C5.28687 304.88 5.48697 304.417 5.46591 303.953C5.44484 303.574 5.35006 303.216 5.17102 302.879C4.91827 302.374 4.43381 302.1 3.91776 301.91Z" fill="white"/>
<path d="M53.9113 389.407C58.1661 389.407 58.1766 382.793 53.9113 382.793C49.6566 382.793 49.646 389.407 53.9113 389.407Z" fill="white"/>
<path d="M21.2631 382.214C23.0429 382.214 23.0429 379.454 21.2631 379.454C19.4833 379.454 19.4833 382.214 21.2631 382.214Z" fill="white"/>
<path d="M317.202 384.173C322.857 384.173 322.868 375.389 317.202 375.389C311.546 375.389 311.536 384.173 317.202 384.173Z" fill="white"/>
<path d="M297.191 414.009C299.224 414.009 299.224 410.849 297.191 410.849C295.159 410.849 295.148 414.009 297.191 414.009Z" fill="white"/>
<path d="M244.049 435.946C243.86 436.009 243.67 436.062 243.491 436.125C243.091 436.252 242.806 436.462 242.543 436.768C242.048 437.347 242.048 438.074 242.543 438.653C242.806 438.958 243.101 439.169 243.491 439.295C243.681 439.358 243.86 439.411 244.049 439.474C245.187 439.832 246.366 438.863 246.366 437.715C246.356 436.557 245.187 435.588 244.049 435.946Z" fill="white"/>
<path d="M422.518 292.053C427.541 292.053 427.541 284.249 422.518 284.249C417.494 284.259 417.494 292.053 422.518 292.053Z" fill="white"/>
<path d="M444.634 262.701C447.109 262.701 447.12 258.846 444.634 258.846C442.159 258.846 442.149 262.701 444.634 262.701Z" fill="white"/>
<path d="M413.039 53.4484C413.229 53.4484 413.229 53.1536 413.039 53.1536C412.85 53.1536 412.85 53.4484 413.039 53.4484Z" fill="white"/>
<path d="M418.305 63.106C420.085 63.106 420.085 60.3467 418.305 60.3467C416.525 60.3467 416.525 63.106 418.305 63.106Z" fill="white"/>
<path d="M449.9 140.766C454.028 140.766 454.039 134.352 449.9 134.352C445.772 134.342 445.761 140.766 449.9 140.766Z" fill="white"/>
<path d="M388.995 342.099L93.0678 371.693L48.5718 138.944L383.235 62.1055L388.995 342.099Z" fill="#69B4FF"/>
<path d="M397.189 87.1708C396.652 101.799 396.188 116.428 395.514 131.067C395.23 138.386 394.745 145.695 394.377 153.014L393.777 163.988L393.092 174.962C393.092 175.026 393.039 175.068 392.976 175.068C392.924 175.068 392.881 175.015 392.871 174.962L392.323 163.988L391.86 153.014C391.575 145.695 391.186 138.376 390.975 131.056C390.47 116.417 390.175 101.789 389.817 87.1498C389.764 85.1172 391.375 83.4216 393.408 83.3689C395.441 83.3163 397.136 84.9276 397.189 86.9602C397.189 87.0129 397.189 87.0971 397.189 87.1708Z" fill="white"/>
<path d="M382.108 77.4081L382.55 75.0596L389.67 75.523C389.512 80.2201 389.333 84.9171 389.09 89.6142C388.869 94.3113 388.564 98.9979 388.185 103.684C387.827 108.371 387.332 113.047 386.858 117.723C386.342 122.399 385.773 127.054 385.131 131.709C385.12 131.772 385.067 131.814 385.004 131.804C384.952 131.793 384.909 131.751 384.909 131.699L383.793 103.6L383.214 89.5932C383.003 84.9277 382.793 80.2622 382.519 75.6072L389.638 76.0706L389.406 78.4507C389.206 80.4834 387.405 81.9683 385.383 81.7682C383.351 81.5681 381.866 79.7672 382.066 77.7451C382.066 77.6293 382.087 77.5134 382.108 77.4081Z" fill="white"/>
<path d="M395.125 65.8127C394.577 63.917 393.861 61.916 392.218 60.7891C390.754 59.7781 388.848 59.6623 387.047 59.6939C378.38 59.8624 370.017 62.6848 361.834 65.4757C356.042 67.4557 350.26 69.0354 344.468 71.0153C349.881 71.4155 355.484 70.9732 360.971 70.7626C368.669 70.4782 377.474 72.1317 381.518 78.556C383.056 81.0098 383.709 83.8744 384.541 86.6337C385.373 89.393 386.499 92.2049 388.701 94.1112C390.902 96.0174 394.451 96.7125 396.789 94.9642L397.21 92.1733C398.284 83.3584 397.568 74.3539 395.125 65.8127Z" fill="white"/>
<g opacity="0.2">
<g opacity="0.2">
<path opacity="0.2" d="M393.851 70.4782C392.123 65.5915 385.868 60.5364 380.444 62.9376C379.37 63.4115 379.833 64.9175 380.749 65.2335C382.771 65.9391 384.878 65.918 386.837 66.929C388.838 67.9506 390.691 69.4566 392.05 71.247C392.661 72.0474 394.251 71.6367 393.851 70.4782Z" fill="#69B4FF"/>
</g>
</g>
<path d="M142.303 123.41C137.606 119.061 132.214 114.427 125.811 114.553C122.483 114.627 119.344 116.006 116.258 117.26C99.292 124.179 81.0513 127.949 62.7368 128.307C54.5432 128.465 44.9595 128.592 40.1044 135.195C37.0608 139.323 36.8923 144.863 37.2293 149.981C38.0191 162.346 41.0312 174.562 46.0548 185.884C46.3707 186.61 46.7498 187.379 47.466 187.727C49.3406 188.653 50.9204 186.021 51.3837 183.977C53.3848 175.194 55.3858 166.4 57.3762 157.617C58.303 153.541 59.3246 149.276 62.126 146.169C66.1596 141.682 72.7524 140.766 78.7659 140.24C91.3407 139.144 104.474 138.354 115.405 132.036C123.241 127.496 136.848 116.533 145.61 118.839" fill="white"/>
<path d="M50.2674 164.357C50.4675 178.996 50.7413 193.635 50.7939 208.274C50.8782 215.593 50.7623 222.923 50.7623 230.243L50.7202 241.227L50.5938 252.222C50.5938 252.285 50.5412 252.327 50.4885 252.327C50.4359 252.327 50.3832 252.285 50.3832 252.233L49.2774 241.301L48.2558 230.358C47.6029 223.06 46.8446 215.772 46.2759 208.474C45.0332 193.877 44.0116 179.28 42.9058 164.683C42.7478 162.651 44.2749 160.881 46.3075 160.723C48.3401 160.565 50.1094 162.092 50.2674 164.125C50.2568 164.199 50.2674 164.283 50.2674 164.357Z" fill="white"/>
<path d="M50.3413 155.658L50.0253 153.288L57.1236 152.551C57.0394 157.216 56.9972 161.882 56.9656 166.558L56.9235 180.575L56.8919 208.695C56.8919 208.758 56.8393 208.8 56.7866 208.8C56.7339 208.8 56.6918 208.758 56.6813 208.716C55.8493 204.093 55.1016 199.448 54.417 194.804C53.7535 190.149 53.09 185.494 52.5424 180.828C51.9842 176.163 51.4997 171.487 51.0995 166.8C50.6783 162.114 50.3097 157.427 49.9727 152.74L57.071 152.003L57.5975 154.331C58.0504 156.321 56.8077 158.291 54.8172 158.754C52.8267 159.207 50.8573 157.964 50.4045 155.974C50.3729 155.879 50.3518 155.763 50.3413 155.658Z" fill="white"/>
<g opacity="0.2">
<g opacity="0.2">
<path opacity="0.2" d="M45.2966 164.831C48.0558 166.758 51.2153 163.746 52.5844 161.429C54.6486 157.943 55.9967 153.151 56.102 149.128C56.1231 148.37 55.0383 148.086 54.6802 148.739C53.2479 151.308 52.4475 154.152 51.5102 156.932C51.0574 158.291 50.6572 159.691 49.8568 160.903C48.7193 162.63 46.9711 163.104 45.2966 164.052C44.9911 164.241 45.0333 164.652 45.2966 164.831Z" fill="#69B4FF"/>
</g>
</g>
<path d="M394.335 292.137C393.998 286.955 393.408 281.405 390.038 277.466C389.607 276.961 389.09 276.466 388.438 276.339C387.111 276.087 386.057 277.435 385.447 278.646C378.727 292.084 383.867 314.527 379.623 328.934C379.012 331.02 378.159 333.105 376.6 334.621C375.263 335.927 373.504 336.696 371.998 337.812C368.122 340.688 358.359 340.803 359.391 345.458C364.626 348.502 379.896 349.955 385.078 348.344C389.038 347.112 391.924 343.531 393.356 339.634C394.788 335.738 394.967 331.515 395.072 327.365C395.346 315.622 395.104 303.859 394.335 292.137Z" fill="white"/>
<path d="M388.912 335.664C388.848 345.974 388.869 356.285 388.68 366.606C388.627 371.766 388.417 376.927 388.301 382.087C388.132 387.248 387.943 392.408 387.711 397.579C387.711 397.642 387.658 397.685 387.595 397.685C387.542 397.685 387.5 397.642 387.49 397.59C386.858 392.461 386.279 387.322 385.72 382.193C385.204 377.053 384.604 371.924 384.151 366.785C383.161 356.517 382.392 346.227 381.55 335.948C381.381 333.916 382.898 332.136 384.92 331.967C386.942 331.799 388.732 333.315 388.901 335.337C388.912 335.443 388.912 335.559 388.912 335.664Z" fill="white"/>
<path d="M377.769 340.519C377.864 342.447 377.864 344.384 377.864 346.312C377.843 348.239 377.811 350.166 377.664 352.083C377.527 354.01 377.264 355.927 377.011 357.833C376.716 359.739 376.4 361.635 375.968 363.52C375.958 363.583 375.895 363.615 375.831 363.605C375.789 363.594 375.758 363.562 375.747 363.52L374.431 357.939C374.03 356.085 373.535 354.252 373.114 352.431L371.85 346.986C371.429 345.174 370.934 343.384 370.481 341.593C369.976 339.614 371.176 337.591 373.156 337.097C375.136 336.591 377.158 337.792 377.653 339.772C377.716 340.003 377.748 340.235 377.759 340.467L377.769 340.519Z" fill="white"/>
<g opacity="0.2">
<g opacity="0.2">
<path opacity="0.2" d="M379.696 343.226C382.234 343.752 384.92 342.647 386.942 341.13C389.048 339.561 389.996 337.433 390.228 334.874C390.291 334.221 389.438 334.169 389.122 334.579C387.974 336.075 386.352 337.476 384.825 338.581C383.235 339.729 381.497 340.119 379.707 340.793C378.643 341.204 378.369 342.952 379.696 343.226Z" fill="#69B4FF"/>
</g>
</g>
<path d="M79.1873 357.738C76.9651 339.561 77.1652 321.225 75.5012 302.984C74.9009 296.434 74.3638 289.672 76.428 283.427C80.8829 287.556 83.105 293.548 84.6005 299.435C87.423 310.515 88.2866 322.099 92.1096 332.873C95.9326 343.647 103.642 354.01 114.731 356.79C121.703 358.539 136.985 357.085 145.389 364.51C147.401 366.29 148.907 367.512 147.79 369.944C147.348 370.913 145.084 371.682 144.273 371.693C128.654 371.882 135.637 372.461 120.197 374.831C111.74 376.126 103.02 377.738 94.7425 375.6C86.4646 373.462 78.7555 366.279 79.1873 357.738Z" fill="white"/>
<path d="M89.7086 362.13C89.677 365.468 89.5822 368.818 89.519 372.167C89.4453 375.516 89.3821 378.854 89.2452 382.203C89.1188 385.552 88.8976 388.901 88.7291 392.25C88.5185 395.599 88.2973 398.948 88.0235 402.308C88.0235 402.371 87.9708 402.413 87.9077 402.403C87.855 402.403 87.8129 402.361 87.8129 402.319C87.2231 399.001 86.686 395.694 86.1594 392.377C85.6749 389.059 85.1378 385.742 84.6955 382.424C84.2426 379.107 83.874 375.779 83.4738 372.461C83.0947 369.133 82.684 365.816 82.3364 362.488C82.1258 360.455 83.6002 358.644 85.6328 358.433C87.6654 358.223 89.4769 359.697 89.6875 361.73C89.7086 361.856 89.7086 361.993 89.7086 362.13Z" fill="white"/>
<path d="M103.894 369.428C104.147 379.665 104.284 389.902 103.979 400.139C103.873 405.257 103.568 410.365 103.294 415.473C102.968 420.581 102.578 425.678 102.093 430.765C102.083 430.828 102.03 430.87 101.978 430.859C101.925 430.859 101.883 430.807 101.883 430.765L100.724 415.494C100.356 410.407 99.8608 405.341 99.4606 400.276C98.5759 390.144 97.7018 380.023 96.5433 369.945C96.3116 367.922 97.765 366.09 99.7871 365.858C101.809 365.627 103.642 367.08 103.873 369.102C103.884 369.207 103.894 369.323 103.894 369.428Z" fill="white"/>
<path d="M114.637 372.662C114.731 374.21 114.71 375.768 114.668 377.306C114.605 378.844 114.51 380.381 114.289 381.898C114.079 383.414 113.71 384.92 113.352 386.395C112.941 387.869 112.499 389.323 111.92 390.734C111.898 390.787 111.835 390.818 111.772 390.797C111.74 390.787 111.709 390.755 111.709 390.713C111.403 389.228 111.119 387.764 110.772 386.332C110.477 384.899 110.076 383.488 109.729 382.098C109.371 380.708 109.044 379.339 108.655 377.98C108.276 376.622 107.823 375.305 107.391 373.989C106.749 372.04 107.812 369.934 109.761 369.292C111.709 368.649 113.815 369.713 114.458 371.661C114.552 371.967 114.616 372.261 114.637 372.567V372.662Z" fill="white"/>
<path d="M137.491 368.101C137.512 369.523 137.448 370.945 137.385 372.356C137.311 373.767 137.227 375.179 137.048 376.59C136.88 378.001 136.585 379.402 136.322 380.792C136.016 382.182 135.679 383.572 135.258 384.942C135.237 385.005 135.174 385.036 135.121 385.015C135.089 385.005 135.058 384.973 135.047 384.942L133.752 380.908L132.509 376.948L131.382 373.041L130.213 369.186C129.613 367.217 130.729 365.132 132.699 364.542C134.668 363.941 136.753 365.058 137.343 367.027C137.448 367.364 137.501 367.701 137.501 368.028L137.491 368.101Z" fill="white"/>
<g opacity="0.2">
<g opacity="0.2">
<path opacity="0.2" d="M99.5767 366.627C107.096 369.881 115.553 371.166 123.578 369.239C124.21 369.091 124.063 368.123 123.431 368.123C115.416 368.101 107.844 367.585 100.072 365.458C99.3977 365.268 98.8921 366.332 99.5767 366.627Z" fill="#69B4FF"/>
</g>
</g>
<path d="M368.396 335.274L83.5998 342.804L64.7588 96.2068L372.808 91.0042L368.396 335.274Z" fill="white"/>
<path opacity="0.38" d="M368.396 335.274L83.5998 342.804L64.7588 96.2068L372.808 91.0042L368.396 335.274Z" fill="#69B4FF"/>
<path d="M368.396 335.274L83.5998 342.804L64.7588 96.2068L372.808 91.0042L368.396 335.274Z" fill="url(#paint0_linear_13_1639)"/>
<g opacity="0.3">
<path opacity="0.3" d="M355.052 322.531L252.674 325.227L356.632 234.719L355.052 322.531Z" fill="white"/>
<path opacity="0.38" d="M355.052 322.531L252.674 325.227L356.632 234.719L355.052 322.531Z" fill="#69B4FF"/>
<path opacity="0.3" d="M355.052 322.531L252.674 325.227L356.632 234.719L355.052 322.531Z" fill="url(#paint1_linear_13_1639)"/>
</g>
<g opacity="0.5">
<path opacity="0.5" d="M97.017 322.436L80.9458 112.057L343.762 107.613L97.017 322.436Z" fill="white"/>
<path opacity="0.38" d="M97.017 322.436L80.9458 112.057L343.762 107.613L97.017 322.436Z" fill="#69B4FF"/>
<path opacity="0.5" d="M97.017 322.436L80.9458 112.057L343.762 107.613L97.017 322.436Z" fill="url(#paint2_linear_13_1639)"/>
</g>
<path d="M208.578 86.8653C203.734 84.3377 198.005 84.3377 192.549 84.6642C171.581 85.8964 150.528 90.9727 129.77 87.6763C118.617 85.9069 107.875 81.7364 96.6168 80.936C85.3586 80.1356 68.2552 85.591 68.2552 95.101C67.4443 98.1552 70.3616 100.946 73.2683 102.147C76.1855 103.347 79.5451 103.884 81.7567 106.128C82.8836 107.276 83.5998 108.761 84.1369 110.277C86.0536 115.732 85.8535 121.683 86.9383 127.359C88.0231 133.036 90.993 139.018 96.4799 140.861C101.777 142.63 107.707 139.818 111.372 135.606C115.037 131.393 116.996 126.011 119.176 120.872C121.356 115.732 124.01 110.509 128.549 107.244C135.436 102.294 144.736 103.084 153.161 103.937C165.63 105.19 178.258 106.117 190.675 104.348C199.353 103.116 207.978 100.462 215.487 96.0278C214.887 92.247 212.085 88.6873 208.578 86.8653Z" fill="white"/>
<path d="M103.894 127.38C103.052 140.892 102.557 154.436 102.114 167.99C101.946 174.772 101.661 181.555 101.546 188.348L101.24 208.737C101.24 208.8 101.188 208.842 101.135 208.842C101.082 208.842 101.03 208.8 101.03 208.747C100.65 205.367 100.271 201.986 99.9343 198.595L99.0286 188.421C98.4809 181.639 97.9017 174.846 97.5857 168.043C96.838 154.436 96.5852 140.808 96.522 127.17C96.5115 125.137 98.1544 123.473 100.198 123.462C102.23 123.452 103.894 125.095 103.905 127.138C103.905 127.212 103.894 127.296 103.894 127.38Z" fill="white"/>
<path d="M92.1723 103.316C91.9091 113.215 91.7195 123.115 91.3193 133.015C91.1613 137.965 90.8559 142.914 90.6242 147.864C90.3504 152.814 90.066 157.775 89.729 162.724C89.729 162.788 89.6763 162.83 89.6132 162.83C89.5605 162.83 89.5184 162.788 89.5078 162.735C88.9813 157.796 88.5073 152.867 88.044 147.927C87.6332 142.988 87.1277 138.059 86.7801 133.12C86.0008 123.241 85.4321 113.363 84.7897 103.484V103.463C84.6528 101.43 86.2009 99.6717 88.2335 99.5453C90.2661 99.4084 92.0249 100.957 92.1513 102.989C92.1723 103.094 92.1829 103.21 92.1723 103.316Z" fill="white"/>
<path d="M82.515 91.3307C82.4097 101.883 82.3886 112.426 82.1464 122.978C82.0727 128.255 81.841 133.531 81.6935 138.807C81.504 144.084 81.2933 149.37 81.0406 154.647C81.0406 154.71 80.9879 154.752 80.9247 154.752C80.8721 154.752 80.8299 154.71 80.8194 154.657C80.2086 149.402 79.6504 144.147 79.1133 138.891C78.6183 133.636 78.0391 128.381 77.6073 123.126C76.6594 112.615 75.9433 102.094 75.1323 91.5729C74.9744 89.5403 76.5014 87.771 78.534 87.613C80.5666 87.4551 82.336 88.9821 82.4939 91.0147C82.515 91.1201 82.5255 91.2254 82.515 91.3307Z" fill="white"/>
<path d="M118.091 107.644C117.87 111.983 117.554 116.322 117.248 120.661C116.932 125 116.606 129.329 116.174 133.657C115.795 137.986 115.247 142.314 114.763 146.632C114.226 150.95 113.657 155.268 113.015 159.565C113.004 159.628 112.951 159.67 112.888 159.66C112.836 159.649 112.793 159.607 112.793 159.555L112.183 146.527C112.035 142.188 111.772 137.849 111.646 133.52L110.719 107.571C110.645 105.538 112.235 103.821 114.278 103.748C116.311 103.674 118.028 105.264 118.101 107.307C118.101 107.413 118.101 107.518 118.101 107.623L118.091 107.644Z" fill="white"/>
<path d="M137.732 94.4689C137.627 96.491 137.458 98.5236 137.321 100.556C137.163 102.589 137.037 104.611 136.826 106.643C136.626 108.676 136.331 110.709 136.079 112.741C135.784 114.774 135.499 116.806 135.141 118.85C135.131 118.913 135.078 118.955 135.015 118.944C134.973 118.934 134.941 118.902 134.931 118.86C134.404 116.859 133.962 114.858 133.498 112.847C133.088 110.846 132.624 108.834 132.266 106.833C131.887 104.822 131.592 102.821 131.276 100.809C130.971 98.7974 130.634 96.7859 130.37 94.7744C130.097 92.7523 131.529 90.8882 133.551 90.6144C135.573 90.3405 137.437 91.7729 137.711 93.7949C137.732 94.0161 137.743 94.2583 137.732 94.4689Z" fill="white"/>
<path d="M202.017 96.4807C201.944 98.2395 201.796 99.9982 201.659 101.757C201.512 103.516 201.364 105.264 201.122 107.012C200.89 108.761 200.543 110.509 200.237 112.246C199.89 113.984 199.521 115.722 199.068 117.449C199.058 117.512 198.995 117.544 198.932 117.533C198.889 117.523 198.858 117.491 198.847 117.449C198.415 115.722 198.047 113.995 197.657 112.278C197.31 110.561 196.899 108.855 196.562 107.149L194.666 96.9757C194.287 94.9641 195.614 93.0263 197.636 92.6472C199.648 92.268 201.585 93.595 201.965 95.6171C202.017 95.8909 202.038 96.1542 202.028 96.4175L202.017 96.4807Z" fill="white"/>
<path d="M181.965 96.4807C181.681 100.156 181.386 103.842 181.175 107.539C180.944 111.225 180.796 114.922 180.607 118.629C180.438 122.336 180.217 126.043 180.112 129.771C179.964 133.489 179.848 137.227 179.743 140.966C179.743 141.029 179.69 141.071 179.627 141.071C179.575 141.071 179.532 141.029 179.522 140.987C178.764 137.322 178.111 133.626 177.531 129.929C176.984 126.222 176.436 122.504 176.046 118.776C175.636 115.048 175.362 111.309 175.12 107.56C174.888 103.811 174.677 100.061 174.593 96.3016C174.54 94.269 176.152 92.5734 178.195 92.5208C180.227 92.4681 181.923 94.0795 181.976 96.1226C181.976 96.2279 181.976 96.3543 181.965 96.4807Z" fill="white"/>
<g opacity="0.2">
<g opacity="0.2">
<path opacity="0.2" d="M100.429 116.943C97.1646 122.831 94.1736 113.658 93.7839 112.383C93.2889 110.793 92.9625 109.192 92.636 107.56C92.1621 105.18 91.8356 102.642 90.2874 100.651C87.1174 96.5859 80.9038 97.7654 76.6279 95.8697C75.7959 95.5011 74.6269 96.3226 75.2483 97.2493C77.3967 100.514 80.7668 99.7664 84.1159 100.693C90.3401 102.42 89.9504 110.624 92.141 115.68C93.1731 118.06 94.637 121.219 97.6595 121.282C100.082 121.335 101.672 119.513 101.409 117.186C101.335 116.733 100.703 116.459 100.429 116.943Z" fill="#69B4FF"/>
</g>
</g>
<g opacity="0.2">
<g opacity="0.2">
<path opacity="0.2" d="M185.546 98.9766C191.675 99.6928 200.269 98.9345 204.987 94.4586C205.545 93.9215 204.956 93.0684 204.271 93.2158C201.312 93.8583 198.584 95.3959 195.646 96.2068C192.339 97.1125 188.958 97.6181 185.546 97.8814C184.84 97.9445 184.861 98.8924 185.546 98.9766Z" fill="#69B4FF"/>
</g>
</g>
<path d="M276.096 92.5101C275.991 94.1847 275.812 95.8697 275.675 97.5442C275.517 99.2188 275.38 100.904 275.169 102.578C274.969 104.263 274.664 105.948 274.411 107.634C274.116 109.319 273.832 111.004 273.463 112.689C273.453 112.752 273.389 112.783 273.326 112.773C273.284 112.762 273.253 112.731 273.242 112.699C272.726 111.056 272.273 109.403 271.831 107.749C271.431 106.096 270.967 104.442 270.609 102.789C270.241 101.136 269.946 99.4821 269.63 97.8181C269.335 96.1646 268.998 94.5006 268.734 92.8471C268.419 90.8251 269.798 88.9189 271.82 88.6029C273.842 88.287 275.749 89.6666 276.064 91.6887C276.096 91.9625 276.107 92.2468 276.096 92.5101Z" fill="white"/>
<path d="M344.152 111.846C344.046 113.521 343.867 115.206 343.73 116.88C343.573 118.555 343.436 120.24 343.225 121.915C343.025 123.6 342.719 125.285 342.467 126.97C342.172 128.655 341.887 130.34 341.519 132.025C341.508 132.088 341.445 132.12 341.382 132.109C341.34 132.099 341.308 132.067 341.298 132.035C340.782 130.392 340.329 128.739 339.886 127.086C339.486 125.432 339.023 123.779 338.665 122.125C338.296 120.472 338.001 118.818 337.685 117.154C337.39 115.501 337.053 113.837 336.79 112.183C336.474 110.161 337.854 108.255 339.876 107.939C341.898 107.623 343.804 109.003 344.12 111.025C344.152 111.299 344.162 111.583 344.152 111.846Z" fill="white"/>
<path d="M290.061 85.0538C290.398 95.8171 290.64 106.57 290.493 117.333C290.461 122.715 290.24 128.086 290.05 133.457C289.819 138.828 289.524 144.199 289.145 149.56C289.145 149.623 289.092 149.665 289.029 149.665C288.976 149.665 288.934 149.623 288.924 149.57L287.47 133.531L285.964 117.523C284.932 106.865 283.942 96.2173 282.71 85.6014C282.478 83.5794 283.921 81.7469 285.943 81.5047C287.965 81.2624 289.798 82.7158 290.04 84.7379C290.051 84.8432 290.061 84.959 290.061 85.0538Z" fill="white"/>
<path d="M352.567 110.856C352.998 122.409 353.251 133.973 353.041 145.526C352.977 151.298 352.704 157.079 352.44 162.84C352.135 168.601 351.756 174.362 351.261 180.112C351.261 180.175 351.208 180.217 351.145 180.207C351.092 180.207 351.05 180.154 351.05 180.102C350.681 174.341 350.292 168.601 349.871 162.861C349.491 157.122 348.954 151.392 348.522 145.674C347.554 134.226 346.553 122.81 345.226 111.425C344.994 109.403 346.437 107.57 348.459 107.339C350.481 107.107 352.314 108.55 352.546 110.572C352.556 110.656 352.567 110.761 352.567 110.856Z" fill="white"/>
<path d="M304.574 83.948C304.753 87.7921 304.827 91.6466 304.9 95.4907C304.953 99.3347 304.995 103.189 304.911 107.033C304.848 110.877 304.637 114.732 304.458 118.565C304.237 122.409 303.952 126.243 303.584 130.076C303.573 130.14 303.521 130.182 303.468 130.171C303.415 130.171 303.373 130.129 303.373 130.076L301.878 118.66L300.361 107.286L298.866 95.9435L297.244 84.6431C296.949 82.621 298.35 80.7569 300.372 80.4621C302.394 80.1672 304.258 81.5679 304.553 83.5899C304.553 83.7163 304.563 83.8322 304.574 83.948Z" fill="white"/>
<path d="M373.429 191.929C371.902 208.832 370.944 225.788 370.228 242.775C369.922 251.264 369.554 259.773 369.406 268.283C369.322 272.537 369.269 276.792 369.238 281.058L369.164 293.843C369.164 293.906 369.111 293.948 369.059 293.948C369.006 293.948 368.953 293.906 368.953 293.853C368.543 289.609 368.142 285.365 367.795 281.11C367.468 276.855 367.173 272.601 366.9 268.346C366.384 259.826 365.889 251.295 365.71 242.754C365.236 225.672 365.457 208.568 366.078 191.476C366.152 189.443 367.858 187.853 369.901 187.927C371.934 188 373.524 189.706 373.45 191.75C373.44 191.792 373.429 191.876 373.429 191.929Z" fill="white"/>
<path d="M374.935 165.273C373.819 148.623 375.346 132.056 375.399 115.332C375.42 108.118 376.789 100.967 376.747 93.7846C376.705 87.4656 374.146 81.9681 367.616 80.3462C353.419 76.8076 341.719 81.0518 327.543 80.8623C320.003 80.757 310.545 79.8828 302.91 79.2615C295.095 78.619 287.081 78.4084 279.445 80.2199C275.77 81.094 272.789 82.9686 269.609 84.9801C267.134 86.5388 262.774 88.6241 262.058 91.8046C260.541 98.5133 275.433 97.0599 279.193 96.8914C286.818 96.5438 294.358 95.2695 301.93 94.4165C308.334 93.7003 316.738 92.1311 322.899 94.7114C329.997 97.6813 326.143 105.127 328.849 110.625C332.135 117.312 340.276 118.65 346.858 119.64C349.66 120.061 353.009 120.261 355.294 122.136C358.138 124.442 358.085 128.37 358.274 131.719C358.759 139.892 359.043 148.064 359.17 156.248C359.296 164.841 358.854 173.456 359.149 182.039C359.38 188.79 360.528 196.615 366.068 201.196C373.04 206.968 372.65 198.216 374.135 192.592C376.41 183.946 375.525 174.109 374.935 165.273Z" fill="white"/>
<g opacity="0.2">
<g opacity="0.2">
<path opacity="0.2" d="M331.029 93.1421C334.094 94.964 332.862 99.7875 333.904 102.652C334.515 104.337 335.642 105.675 337.064 106.738C340.76 109.487 346.142 109.919 350.428 108.529C351.218 108.276 351.323 107.012 350.428 106.812C344.825 105.559 338.117 106.749 336.221 99.7454C335.379 96.6491 334.715 93.616 331.261 92.5944C330.934 92.4996 330.745 92.963 331.029 93.1421Z" fill="#69B4FF"/>
</g>
</g>
<path d="M301.256 315.264C292.463 309.251 280.351 309.293 270.789 314.001C264.154 317.265 258.688 322.478 252.306 326.217C247.945 328.776 243.164 330.64 238.225 331.704C226.882 334.147 215.129 332.378 203.523 332.462C192.939 332.547 181.554 334.674 173.887 341.72C177.71 345.153 182.934 347.122 188.115 347.754C195.161 348.618 202.27 347.407 209.316 346.533C226.693 344.384 244.323 344.268 261.721 346.217C273.011 347.48 284.564 349.576 295.59 346.87C301.099 345.511 306.196 343.015 311.061 340.066C313.368 331.03 309.081 320.614 301.256 315.264Z" fill="white"/>
<path d="M280.878 334.042C281.773 347.891 282.289 361.761 282.12 375.621C282.089 382.551 281.752 389.47 281.404 396.379C281.215 399.833 280.994 403.287 280.762 406.731C280.499 410.175 280.183 413.619 279.856 417.063C279.846 417.126 279.793 417.168 279.74 417.158C279.688 417.158 279.646 417.105 279.646 417.052C279.561 413.598 279.435 410.143 279.319 406.7C279.203 403.256 279.066 399.812 278.898 396.368C278.582 389.48 278.055 382.614 277.602 375.747C276.591 362.025 275.338 348.355 273.558 334.748C273.295 332.726 274.717 330.872 276.739 330.609C278.761 330.345 280.614 331.767 280.878 333.789C280.867 333.874 280.878 333.958 280.878 334.042Z" fill="white"/>
<path d="M293.274 332.958C293.548 337.075 293.695 341.204 293.811 345.332C293.916 349.45 293.958 353.578 293.864 357.696C293.811 361.814 293.558 365.932 293.305 370.039C293.01 374.147 292.642 378.243 292.157 382.319C292.147 382.382 292.094 382.425 292.042 382.414C291.989 382.403 291.947 382.361 291.947 382.319C291.568 378.233 291.167 374.147 290.725 370.081C290.325 366.016 289.788 361.962 289.335 357.917C288.829 353.873 288.334 349.84 287.776 345.817C287.229 341.794 286.586 337.781 285.944 333.779C285.628 331.767 286.997 329.872 289.008 329.556C291.02 329.24 292.916 330.609 293.232 332.621C293.253 332.726 293.263 332.852 293.274 332.958Z" fill="white"/>
<path d="M307.133 333.031C307.417 335.053 307.554 337.086 307.66 339.108C307.744 341.13 307.786 343.152 307.67 345.174C307.575 347.186 307.302 349.197 307.017 351.177C306.691 353.157 306.291 355.116 305.764 357.043C305.743 357.106 305.69 357.138 305.627 357.117C305.585 357.106 305.553 357.075 305.543 357.033C305.195 355.074 304.848 353.136 304.437 351.23C304.068 349.323 303.584 347.438 303.131 345.585C302.668 343.731 302.215 341.888 301.688 340.077C301.172 338.265 300.561 336.475 299.951 334.716C299.287 332.778 300.319 330.672 302.257 330.008C304.195 329.345 306.301 330.377 306.965 332.315C307.038 332.536 307.091 332.757 307.123 332.978L307.133 333.031Z" fill="white"/>
<path d="M205.019 342.604C204.987 345.069 204.882 347.544 204.808 350.008C204.724 352.483 204.661 354.947 204.513 357.422C204.376 359.897 204.144 362.372 203.976 364.847C203.755 367.322 203.523 369.808 203.239 372.293C203.228 372.356 203.176 372.398 203.112 372.388C203.07 372.377 203.028 372.346 203.018 372.304C202.438 369.871 201.901 367.438 201.385 365.005C200.911 362.572 200.385 360.14 199.953 357.696C199.511 355.253 199.142 352.81 198.763 350.377C198.394 347.933 197.994 345.49 197.657 343.047C197.383 341.025 198.794 339.161 200.817 338.887C202.839 338.613 204.703 340.024 204.976 342.046C205.008 342.225 205.019 342.425 205.019 342.604Z" fill="white"/>
<path d="M219.31 341.762C219.121 343.036 218.868 344.311 218.647 345.574C218.405 346.849 218.194 348.123 217.899 349.387C217.615 350.661 217.236 351.935 216.909 353.199C216.54 354.474 216.172 355.748 215.73 357.012C215.708 357.075 215.645 357.106 215.582 357.085C215.551 357.075 215.519 357.043 215.508 357.012C215.066 355.737 214.697 354.463 214.329 353.199C214.002 351.925 213.623 350.651 213.339 349.387C213.044 348.112 212.833 346.838 212.591 345.574C212.37 344.3 212.117 343.026 211.928 341.762C211.633 339.729 213.044 337.834 215.077 337.539C217.109 337.244 219.005 338.655 219.3 340.688C219.363 341.046 219.363 341.425 219.31 341.762Z" fill="white"/>
<g opacity="0.2">
<g opacity="0.2">
<path opacity="0.2" d="M249.262 334.674C253.338 335.338 256.529 333.874 259.688 331.314C261.742 329.661 263.406 327.681 265.281 325.849C267.566 323.616 270.083 322.215 272.737 320.562C273.516 320.077 273.116 319.045 272.305 318.95C262.532 317.781 258.635 332.494 249.252 333.821C248.83 333.874 248.841 334.611 249.262 334.674Z" fill="#69B4FF"/>
</g>
</g>
<g opacity="0.2">
<g opacity="0.2">
<path opacity="0.2" d="M185.662 341.741C190.864 343.468 197.931 344.332 203.07 342.036C203.534 341.825 203.439 340.982 202.923 340.909C200.259 340.509 197.584 340.867 194.898 340.782C191.875 340.698 188.884 340.403 185.872 340.182C184.946 340.119 184.851 341.467 185.662 341.741Z" fill="#69B4FF"/>
</g>
</g>
<path d="M217.678 128.886C221.427 128.886 221.437 123.063 217.678 123.063C213.928 123.052 213.918 128.886 217.678 128.886Z" fill="white"/>
<path d="M229.789 154.289C231 154.289 231 152.414 229.789 152.414C228.578 152.414 228.578 154.289 229.789 154.289Z" fill="white"/>
<path d="M328.26 163.357C332.325 163.357 332.336 157.038 328.26 157.038C324.195 157.038 324.184 163.357 328.26 163.357Z" fill="white"/>
<path d="M340.898 188.832C343.183 188.832 343.194 185.273 340.898 185.273C338.612 185.273 338.602 188.832 340.898 188.832Z" fill="white"/>
<path d="M90.2455 240.111C94.8162 240.111 94.8267 233.002 90.2455 233.002C85.6747 232.991 85.6642 240.111 90.2455 240.111Z" fill="white"/>
<path d="M71.8152 210.464C74.1637 210.464 74.1742 206.81 71.8152 206.81C69.4666 206.82 69.4561 210.464 71.8152 210.464Z" fill="white"/>
<path d="M162.914 215.277C166.031 215.277 166.031 210.443 162.914 210.443C159.796 210.433 159.796 215.277 162.914 215.277Z" fill="white"/>
<path d="M339.845 300.615C340.329 300.636 340.782 300.531 341.193 300.309C341.625 300.172 342.004 299.93 342.32 299.583C342.657 299.267 342.899 298.888 343.046 298.456C343.267 298.035 343.362 297.592 343.352 297.108C343.31 296.802 343.268 296.486 343.225 296.181C343.057 295.591 342.762 295.075 342.32 294.633C342.088 294.454 341.846 294.264 341.614 294.085C341.066 293.769 340.477 293.611 339.845 293.611C339.36 293.59 338.907 293.696 338.497 293.917C338.065 294.054 337.686 294.296 337.37 294.643C337.033 294.959 336.791 295.338 336.643 295.77C336.422 296.192 336.327 296.634 336.338 297.118C336.38 297.424 336.422 297.74 336.464 298.045C336.633 298.635 336.927 299.151 337.37 299.593C337.602 299.772 337.844 299.962 338.075 300.141C338.623 300.446 339.213 300.615 339.845 300.615Z" fill="white"/>
<path d="M351.956 273.822C353.167 273.822 353.167 271.948 351.956 271.948C350.745 271.948 350.745 273.822 351.956 273.822Z" fill="white"/>
<path d="M213.992 316.612C216.719 316.612 216.73 312.368 213.992 312.368C211.253 312.358 211.253 316.612 213.992 316.612Z" fill="white"/>
<path d="M332.999 349.187C334.968 349.187 334.968 346.122 332.999 346.122C331.03 346.133 331.03 349.187 332.999 349.187Z" fill="white"/>
<path d="M146.59 353.736C147.864 353.736 147.864 351.756 146.59 351.756C145.315 351.767 145.315 353.736 146.59 353.736Z" fill="white"/>
<path d="M101.145 317.181C110.087 312.073 118.975 306.881 127.885 301.731C129.001 301.089 127.99 299.351 126.874 300.004C117.985 305.196 109.076 310.346 100.208 315.58C99.1864 316.181 100.113 317.771 101.145 317.181Z" fill="white"/>
<path d="M99.2603 299.414C108.181 305.596 117.059 312.126 126.4 317.676C127.127 318.108 127.696 317.044 127.053 316.57C118.291 310.125 109.055 304.196 100.04 298.098C99.2182 297.54 98.4599 298.856 99.2603 299.414Z" fill="white"/>
<path d="M113.689 325.933C113.826 314.485 113.857 303.027 113.942 291.579C113.952 290.494 112.267 290.494 112.267 291.579C112.257 303.027 112.193 314.485 112.236 325.933C112.236 326.87 113.678 326.87 113.689 325.933Z" fill="white"/>
<path d="M113.626 309.114C115.216 306.85 116.469 304.354 117.975 302.037C119.481 299.72 121.282 297.592 122.735 295.244C123.115 294.622 122.261 294.001 121.745 294.486C117.901 298.087 114.331 303.743 112.762 308.766C112.604 309.282 113.331 309.525 113.626 309.114Z" fill="white"/>
<path d="M113.92 307.945C112.53 303.037 110.055 297.656 107.222 293.433C106.98 293.064 106.338 293.285 106.474 293.748C108.012 298.646 110.35 303.943 112.92 308.366C113.236 308.893 114.089 308.545 113.92 307.945Z" fill="white"/>
<path d="M114.068 308.113C112.014 310.968 110.192 313.969 108.255 316.907C106.338 319.814 104.031 322.584 102.599 325.764C102.452 326.091 102.82 326.417 103.105 326.154C105.548 323.89 107.265 320.92 109.076 318.15C111.109 315.022 113.12 311.873 114.731 308.503C114.942 308.05 114.363 307.713 114.068 308.113Z" fill="white"/>
<path d="M112.804 309.346C115.964 314.306 118.955 319.73 122.957 324.069C123.42 324.574 124.157 323.932 123.873 323.363C121.219 318.161 117.185 313.485 113.657 308.851C113.289 308.356 112.457 308.798 112.804 309.346Z" fill="white"/>
<path d="M97.4384 309.672C101.935 309.24 106.538 309.156 111.003 308.492C111.667 308.398 111.445 307.418 110.856 307.376C106.39 307.05 101.683 307.839 97.312 308.693C96.7643 308.808 96.8802 309.725 97.4384 309.672Z" fill="white"/>
<path d="M111.898 308.882C118.407 308.682 125.126 308.155 131.519 306.829C132.056 306.713 131.94 305.817 131.392 305.86C124.863 306.281 118.28 307.271 111.814 308.229C111.435 308.292 111.53 308.903 111.898 308.882Z" fill="white"/>
<path d="M239.415 135.69C248.356 130.582 257.245 125.39 266.154 120.24C267.271 119.597 266.26 117.86 265.143 118.513C256.255 123.705 247.345 128.855 238.477 134.089C237.445 134.7 238.372 136.29 239.415 135.69Z" fill="white"/>
<path d="M237.53 117.933C246.45 124.116 255.328 130.645 264.67 136.195C265.396 136.627 265.965 135.563 265.323 135.089C256.56 128.644 247.324 122.715 238.309 116.617C237.477 116.059 236.719 117.375 237.53 117.933Z" fill="white"/>
<path d="M251.948 144.442C252.085 132.994 252.116 121.535 252.2 110.087C252.211 109.003 250.526 109.003 250.526 110.087C250.515 121.535 250.452 132.994 250.494 144.442C250.505 145.379 251.937 145.389 251.948 144.442Z" fill="white"/>
<path d="M251.895 127.622C253.485 125.358 254.738 122.862 256.244 120.545C257.75 118.228 259.551 116.101 261.005 113.752C261.384 113.131 260.531 112.51 260.015 112.994C256.17 116.596 252.6 122.251 251.031 127.275C250.863 127.802 251.6 128.044 251.895 127.622Z" fill="white"/>
<path d="M252.179 126.464C250.789 121.556 248.314 116.175 245.481 111.952C245.239 111.583 244.596 111.804 244.733 112.268C246.271 117.165 248.609 122.462 251.179 126.885C251.495 127.412 252.348 127.064 252.179 126.464Z" fill="white"/>
<path d="M252.337 126.633C250.283 129.487 248.461 132.488 246.524 135.427C244.607 138.333 242.3 141.103 240.868 144.284C240.721 144.61 241.089 144.937 241.374 144.673C243.817 142.409 245.534 139.439 247.345 136.669C249.378 133.541 251.389 130.393 253 127.022C253.211 126.57 252.621 126.233 252.337 126.633Z" fill="white"/>
<path d="M251.063 127.865C254.222 132.825 257.213 138.249 261.215 142.588C261.678 143.093 262.416 142.451 262.131 141.882C259.477 136.68 255.444 132.004 251.916 127.37C251.547 126.875 250.715 127.317 251.063 127.865Z" fill="white"/>
<path d="M235.697 128.191C240.194 127.759 244.796 127.675 249.262 127.022C249.925 126.927 249.704 125.948 249.114 125.906C244.649 125.579 239.941 126.369 235.571 127.222C235.023 127.328 235.139 128.244 235.697 128.191Z" fill="white"/>
<path d="M250.157 127.401C256.666 127.201 263.385 126.675 269.777 125.348C270.315 125.232 270.199 124.337 269.651 124.379C263.121 124.8 256.539 125.79 250.073 126.748C249.694 126.801 249.788 127.412 250.157 127.401Z" fill="white"/>
<defs>
<linearGradient id="paint0_linear_13_1639" x1="218.784" y1="91" x2="218.784" y2="342.799" gradientUnits="userSpaceOnUse">
<stop stop-color="#69B4FF" stop-opacity="0.5"/>
<stop offset="1" stop-color="#69B4FF" stop-opacity="0"/>
</linearGradient>
<linearGradient id="paint1_linear_13_1639" x1="304.652" y1="234.72" x2="304.652" y2="325.232" gradientUnits="userSpaceOnUse">
<stop stop-color="#69B4FF" stop-opacity="0.5"/>
<stop offset="1" stop-color="#69B4FF" stop-opacity="0"/>
</linearGradient>
<linearGradient id="paint2_linear_13_1639" x1="212.353" y1="107.613" x2="212.353" y2="322.441" gradientUnits="userSpaceOnUse">
<stop stop-color="#69B4FF" stop-opacity="0.5"/>
<stop offset="1" stop-color="#69B4FF" stop-opacity="0"/>
</linearGradient>
</defs>
</svg>
