<svg width="50" height="49" viewBox="0 0 50 49" fill="none" xmlns="http://www.w3.org/2000/svg">
<path fill-rule="evenodd" clip-rule="evenodd" d="M43.5831 44.9389C43.153 43.5452 41.5272 40.6342 40.6223 39.6379C40.0069 38.96 39.8554 38.8771 39.6932 39.1288C39.2234 39.8581 38.7086 40.4081 38.3898 40.5212C38.2003 40.5885 37.8558 40.7093 37.6242 40.79C37.2119 40.9332 37.2231 40.9599 38.182 42.1048C38.7201 42.7475 39.7299 43.6916 40.4258 44.2028C41.8632 45.2584 43.5659 46.2086 43.767 46.0673C43.8413 46.0151 43.7586 45.5072 43.5831 44.9389ZM48.4507 37.5706C48.7436 35.0747 48.2223 32.8746 46.733 30.3196C45.9791 29.0268 45.9291 28.9767 45.7197 29.3053C45.2305 30.0724 44.358 31.1212 43.9994 31.3732C43.79 31.5204 43.6404 31.6714 43.6666 31.7086C43.6929 31.7461 44.1577 32.1549 44.6996 32.6173C45.9594 33.6925 46.9848 35.4146 47.5977 37.4849C47.8452 38.3208 48.0995 39.0137 48.1628 39.0247C48.226 39.0358 48.3556 38.3814 48.4507 37.5706ZM33.8421 48.542C31.1849 47.055 30.1283 46.2161 28.84 44.5706L27.9844 43.4776L27.1395 43.9076C26.6749 44.1443 25.9241 44.3678 25.4712 44.4045L24.6478 44.4711L25.2806 45.1344C26.837 46.7658 28.882 47.8793 31.175 48.3435C32.5543 48.6228 34.206 48.7456 33.8421 48.542ZM38.5364 39.0824C39.1643 38.2783 39.4747 36.6286 39.2293 35.4022C38.785 33.1832 36.3104 30.0189 34.0881 28.8281C30.7331 27.0303 27.7395 29.1778 28.4673 32.8596C29.2508 36.8218 32.9784 40.5499 35.9759 40.3688C36.9081 40.3126 38.0071 39.7604 38.5364 39.0824ZM28.091 41.6384C28.7755 40.3281 28.7993 38.3589 28.155 36.3197C26.6867 31.673 21.5376 28.8824 19.4939 31.6257C18.8406 32.5029 18.5016 34.184 18.7015 35.5576C19.4321 40.5835 22.5736 44.0735 25.8141 43.4597C26.9948 43.2358 27.444 42.8766 28.091 41.6384ZM49.6005 25.369C49.8971 22.8411 49.256 20.3092 47.7919 18.2259C47.0544 17.1764 47.0056 17.1405 46.9271 17.5863C46.8169 18.2125 46.1997 19.1711 45.6643 19.5473L45.2336 19.85L46.0581 20.7909C47.043 21.9149 48.4311 24.4594 48.8666 25.9397C49.039 26.5261 49.2362 26.9664 49.3045 26.9184C49.3729 26.8703 49.5061 26.173 49.6005 25.369ZM44.4479 29.8546C44.894 29.1658 44.9716 27.1239 44.5964 25.9406C43.9374 23.8622 42.0585 21.629 40.0716 20.5619C38.8835 19.9239 36.9787 19.6955 35.9575 20.0685C31.8661 21.5632 35.2623 29.0833 40.8454 30.8917C42.1452 31.3126 43.8149 30.8321 44.4479 29.8546ZM21.1821 45.3324C21.1504 45.2873 20.7904 45.0743 20.3823 44.8589C18.9831 44.121 17.7081 42.876 16.578 41.144L15.5194 39.5212L15.0617 39.8431C14.5071 40.2331 13.8867 40.3339 12.8789 40.1974L12.1196 40.0946L13.0893 41.2295C15.0157 43.4841 16.9743 44.9 18.7618 45.3303C19.5713 45.5252 21.3187 45.5267 21.1821 45.3324ZM45.9427 17.9051C46.7927 16.7943 46.594 15.5029 45.2845 13.6289C44.2446 12.1405 43.0208 11.0326 41.3747 10.0897C39.2707 8.88426 37.5603 8.76935 36.1921 9.74131C34.0008 11.298 34.101 14.1594 36.4308 16.5551C39.2167 19.42 44.2381 20.1326 45.9427 17.9051ZM15.3076 38.4795C17.2771 36.2067 16.4631 32.0225 13.5465 29.4289C12.9693 28.9155 12.1316 28.3214 11.6852 28.1086C10.2254 27.4123 8.38837 28.0548 7.63935 29.5235C6.34692 32.0576 8.22949 37.1596 11.0673 38.8141C12.722 39.7786 14.2888 39.6549 15.3076 38.4795ZM30.6601 25.8153C30.8121 25.6516 31.2682 25.0564 31.6736 24.4928C33.2181 22.3451 33.4352 20.5632 32.4143 18.4115C31.2781 16.0164 31.4714 14.3262 33.2622 11.0029C34.4668 8.76691 34.9363 7.00787 34.7621 5.38078C34.585 3.72329 33.5115 2.15527 32.0345 1.39655C29.8901 0.294787 27.0357 0.285878 23.9136 1.37107C22.6311 1.8169 21.9648 2.189 20.0843 3.50959C17.5822 5.26681 16.313 6.51022 14.2635 9.21155C13.1828 10.6361 12.9131 10.8859 11.5393 11.7368C10.4949 12.3837 9.38854 12.8788 8.02711 13.3088C3.82634 14.6358 1.49558 16.7768 0.751944 19.9915C0.320879 21.8553 0.565763 23.0815 1.68808 24.6785C2.50472 25.8405 2.71288 26.0282 3.54507 26.3532C4.08228 26.563 5.07081 26.6878 5.86097 26.6454C6.61933 26.6048 7.9987 26.5286 8.92658 26.4759C11.5429 26.3274 13.751 26.7955 15.908 27.9562C16.9157 28.4984 18.2675 29.0762 18.9119 29.2405C21.2191 29.8285 24.4817 29.4965 26.8206 28.4361C27.7552 28.0123 30.1169 26.4003 30.6601 25.8153Z" fill="#184066"/>
</svg>
